<svg xmlns="http://www.w3.org/2000/svg" xmlns:xlink="http://www.w3.org/1999/xlink" width="84.29" height="84.29" viewBox="0 0 84.29 84.29">
  <defs>
    <linearGradient id="linear-gradient" x1="0.5" x2="0.5" y2="1" gradientUnits="objectBoundingBox">
      <stop offset="0" stop-color="#7b1562"/>
      <stop offset="1" stop-color="#c70039"/>
    </linearGradient>
  </defs>
  <path id="facebook_1_" data-name="facebook (1)" d="M81,57.949a3.292,3.292,0,0,0,3.293-3.293V13.17A13.185,13.185,0,0,0,71.119,0H13.17A13.185,13.185,0,0,0,0,13.17V71.119A13.185,13.185,0,0,0,13.17,84.29H71.119a13.185,13.185,0,0,0,13.17-13.17,3.293,3.293,0,0,0-6.585,0A6.593,6.593,0,0,1,71.119,77.7H54.986V53.669h7.62a3.293,3.293,0,0,0,3.269-2.9l.436-3.622a3.293,3.293,0,0,0-3.269-3.686H54.986V32.432a4.938,4.938,0,0,1,4.939-4.939H64.04A3.292,3.292,0,0,0,67.333,24.2V20.87a3.29,3.29,0,0,0-2.952-3.275c-1.669-.17-3.436-.309-4.456-.309A15.244,15.244,0,0,0,49.365,21.73a14.99,14.99,0,0,0-4.586,10.731v11H37.371a3.292,3.292,0,0,0-3.293,3.293v3.622a3.292,3.292,0,0,0,3.293,3.293h7.408V77.7H13.17a6.593,6.593,0,0,1-6.585-6.585V13.17A6.593,6.593,0,0,1,13.17,6.585H71.119A6.593,6.593,0,0,1,77.7,13.17V54.657A3.292,3.292,0,0,0,81,57.949Zm0,0" fill="url(#linear-gradient)"/>
</svg>
