<svg id="Layer_1" data-name="Layer 1" xmlns="http://www.w3.org/2000/svg" xmlns:xlink="http://www.w3.org/1999/xlink" viewBox="0 0 581.2 581.79"><defs><style>.cls-1{mask:url(#mask);}.cls-2,.cls-4{mix-blend-mode:multiply;}.cls-2{fill:url(#åçûìßííûé_ãðàäèåíò_150);}.cls-3{mask:url(#mask-2);}.cls-4{fill:url(#åçûìßííûé_ãðàäèåíò_150-2);}.cls-5{fill:url(#åçûìßííûé_ãðàäèåíò_349);}.cls-6{fill:#8c181b;opacity:0.2;}.cls-7{fill:#fbf28b;opacity:0.53;}.cls-8{fill:#af1f23;opacity:0.25;}.cls-9{mask:url(#mask-3);}.cls-10{fill:url(#åçûìßííûé_ãðàäèåíò_20);}.cls-11{fill:#fff;}.cls-12{mask:url(#mask-4);}.cls-13{opacity:0.67;fill:url(#åçûìßííûé_ãðàäèåíò_20-2);}.cls-14{filter:url(#luminosity-noclip-2);}.cls-15{filter:url(#luminosity-noclip);}</style><filter id="luminosity-noclip" x="854.11" y="-9609" width="251.09" height="32766" filterUnits="userSpaceOnUse" color-interpolation-filters="sRGB"><feFlood flood-color="#fff" result="bg"/><feBlend in="SourceGraphic" in2="bg"/></filter><mask id="mask" x="854.11" y="-9609" width="251.09" height="32766" maskUnits="userSpaceOnUse"><g class="cls-15"/></mask><linearGradient id="åçûìßííûé_ãðàäèåíò_150" x1="1555.93" y1="690.33" x2="1576" y2="837.78" gradientTransform="matrix(1.15, 0, 0, 1.36, -828.42, -89.54)" gradientUnits="userSpaceOnUse"><stop offset="0" stop-color="#fff"/><stop offset="1"/></linearGradient><filter id="luminosity-noclip-2" x="1084" y="-9609" width="331.05" height="32766" filterUnits="userSpaceOnUse" color-interpolation-filters="sRGB"><feFlood flood-color="#fff" result="bg"/><feBlend in="SourceGraphic" in2="bg"/></filter><mask id="mask-2" x="1084" y="-9609" width="331.05" height="32766" maskUnits="userSpaceOnUse"><g class="cls-14"/></mask><linearGradient id="åçûìßííûé_ãðàäèåíò_150-2" x1="1592.55" y1="1016.55" x2="1344.11" y2="792.84" gradientTransform="matrix(0.74, -0.68, 0.68, 0.74, -445.08, 1382.31)" xlink:href="#åçûìßííûé_ãðàäèåíò_150"/><radialGradient id="åçûìßííûé_ãðàäèåíò_349" cx="1310.76" cy="746.53" r="445.12" gradientTransform="matrix(0.74, -0.68, 0.68, 0.74, -445.08, 1382.31)" gradientUnits="userSpaceOnUse"><stop offset="0.33" stop-color="#ffd10f"/><stop offset="1" stop-color="#c03c27"/></radialGradient><mask id="mask-3" x="19.61" y="31.44" width="251.09" height="317.24" maskUnits="userSpaceOnUse"><g transform="translate(-834.5 -762.36)"><g class="cls-1"><ellipse class="cls-2" cx="979.66" cy="952.41" rx="176.73" ry="98.35" transform="translate(-347.73 1276.24) rotate(-57.9)"/></g></g></mask><linearGradient id="åçûìßííûé_ãðàäèåíò_20" x1="1555.93" y1="690.33" x2="1576" y2="837.78" gradientTransform="matrix(1.15, 0, 0, 1.36, -828.42, -89.54)" gradientUnits="userSpaceOnUse"><stop offset="0" stop-color="#fff"/><stop offset="1" stop-color="#fff"/></linearGradient><mask id="mask-4" x="249.5" y="1.64" width="331.05" height="580.15" maskUnits="userSpaceOnUse"><g transform="translate(-834.5 -762.36)"><g class="cls-3"><path class="cls-4" d="M1330.37,848.82c-4.33-4.35-8.79-8.58-13.37-12.57a.31.31,0,0,0-.19-.21,287.7,287.7,0,0,0-41.6-30.66,282.88,282.88,0,0,0-26.55-14.24c-6-2.86-12.17-5.46-18.33-7.87-3.52-1.4-7.08-2.64-10.64-3.88l0,0c-5.32-1.85-10.75-3.53-16.16-5l-5.24-1.41,0,0c-6.2-1.61-12.46-3-18.78-4.22l-5.32-1c-5-.84-10.14-1.61-15.21-2.21l-.76-.07c-5.33-.67-10.66-1.08-16-1.37,3.12.44,6.24.84,9.33,1.36l5.33,1c6.31,1.19,12.58,2.6,18.77,4.22l0,0,5.25,1.41c5.4,1.51,10.83,3.19,16.15,5l0,0c3.56,1.24,7.12,2.47,10.64,3.88,6.16,2.4,12.31,5,18.32,7.87a279.35,279.35,0,0,1,26.55,14.24,288.34,288.34,0,0,1,41.61,30.66.29.29,0,0,1,.19.2c4.57,4,9,8.23,13.36,12.58,2.67,2.69,5.31,5.41,7.88,8.2,2.79,3,5.48,6.09,8.1,9.21a287.29,287.29,0,0,1,55.21,99.79,284.09,284.09,0,0,1,11.48,53.63c.28,2,.5,4,.68,6,.2,1.73.35,3.49.48,5.22l.25,3.78q.64,9.53.6,19.11a285,285,0,0,1-2.69,39.77c-.65,4.68-1.37,9.35-2.26,14a288.45,288.45,0,0,1-9.84,38c-.53,1.63-1.06,3.27-1.69,4.86-.79,2.39-1.69,4.81-2.61,7.12a290.33,290.33,0,0,1-203.06,178.54c-2.94.74-5.89,1.41-8.92,2s-5.85,1.25-8.85,1.73c-2.24.4-4.51.77-6.77,1.14-5.9.86-11.79,1.58-17.77,2a273.29,273.29,0,0,1-29,1.23c-5-.06-9.94-.29-14.91-.6,1.17.16,2.32.39,3.49.54a293.45,293.45,0,0,0,34.06,2.35,275.65,275.65,0,0,0,29-1.22c6-.42,11.88-1.14,17.77-2,2.27-.37,4.54-.74,6.77-1.15,3-.47,6-1.08,8.85-1.72s6-1.25,8.93-2A290.33,290.33,0,0,0,1396,1157.52c.92-2.31,1.81-4.73,2.61-7.11.63-1.6,1.16-3.23,1.69-4.87a291.2,291.2,0,0,0,9.84-38c.88-4.64,1.61-9.31,2.26-14a286.45,286.45,0,0,0,2.69-39.77q0-9.59-.61-19.11l-.24-3.78c-.13-1.73-.29-3.49-.48-5.22-.18-2-.4-4-.68-6A284.22,284.22,0,0,0,1401.55,966a287.32,287.32,0,0,0-55.2-99.78c-2.62-3.13-5.31-6.19-8.1-9.21C1335.68,854.24,1333,851.51,1330.37,848.82Z"/></g></g></mask><linearGradient id="åçûìßííûé_ãðàäèåíò_20-2" x1="1592.55" y1="1016.55" x2="1344.11" y2="792.84" gradientTransform="matrix(0.74, -0.68, 0.68, 0.74, -445.08, 1382.31)" xlink:href="#åçûìßííûé_ãðàäèåíò_20"/></defs><path class="cls-5" d="M1338.48,856c1.14,1.24,2.31,2.52,3.42,3.79,1.68,1.89,3.32,3.81,4.94,5.7,2.27,2.67,4.48,5.42,6.62,8.15q6.13,7.82,11.67,15.92c1.87,2.72,3.65,5.48,5.42,8.24q6.21,9.84,11.51,19.95c3.84,7.28,7.35,14.67,10.45,22.19a3.69,3.69,0,0,1,.3.67c1.64,3.85,3.17,7.72,4.56,11.58s2.68,7.47,3.92,11.23c1.85,5.81,3.56,11.67,5,17.56q2.84,10.95,4.69,22.09,1.21,6.92,2.09,13.87.78,6.24,1.27,12.57s0,0,0,.07c.72,9.07,1,18.13.9,27.23-.1,4.87-.27,9.73-.6,14.55l0,0c-.33,6.42-1,12.78-1.81,19-.3,2.64-.68,5.27-1.08,7.88A290.54,290.54,0,0,1,1168.55,1340c-1.63.23-3.26.46-4.93.65-4.7.64-9.39,1.14-14.11,1.55-5.15.41-10.23.7-15.37.86H1134c-4,.17-8.19.23-12.27.16-3-.06-6-.11-8.9-.26-4.59-.16-9.15-.48-13.71-.86a294.32,294.32,0,0,1-29.21-4.08,279.28,279.28,0,0,1-30.07-7.5c-.69-.19-1.38-.38-2-.61-2-.58-3.92-1.22-5.89-1.9-4.73-1.55-9.37-3.26-14-5.11-4.43-1.71-8.83-3.58-13.15-5.57-6.86-3.1-13.61-6.49-20.19-10.17-4.57-2.48-9-5.11-13.42-7.87-3-1.85-6-3.8-9-5.8s-6-4.19-9-6.4c-3.5-2.57-7-5.22-10.34-8-3.85-3.07-7.59-6.24-11.3-9.57-1.15-1-2.3-2-3.41-3.09-3.13-2.85-6.16-5.78-9.15-8.82-.19-.21-.45-.42-.64-.62-2.42-2.42-4.73-4.87-7.05-7.38-3.52-3.82-6.94-7.74-10.19-11.68s-6.62-8.22-9.72-12.43c-2.2-2.94-4.3-5.9-6.36-8.9-4.63-6.75-9-13.69-12.93-20.74q-3.57-6.25-6.81-12.63c-.88-1.8-1.77-3.59-2.62-5.41q-3.52-7.35-6.55-14.78c-1.69-4.18-3.3-8.35-4.79-12.58-2.14-6-4-12-5.75-18.06a268.38,268.38,0,0,1-7.27-32.63c-.54-3.14-1-6.27-1.4-9.47-.71-5.46-1.24-11-1.65-16.43a291.56,291.56,0,0,1,4.8-77.48c.12-.62.25-1.18.37-1.81a288.15,288.15,0,0,1,9.94-36.39,289.22,289.22,0,0,1,30-62,286.39,286.39,0,0,1,25.54-34,299.51,299.51,0,0,1,22.27-22.87,289.2,289.2,0,0,1,107.45-62.84c.14-.06.31-.09.44-.15q13-4.18,26.33-7.07a290.86,290.86,0,0,1,39-5.82c3.86-.31,7.74-.51,11.59-.68,3.32-.13,6.6-.23,9.92-.23,6.32,0,12.71.13,19.05.52,2,.11,3.84.22,5.75.37,3.6.24,7.17.59,10.73,1l.76.06c4.38.55,8.76,1.16,13.14,1.9,2.47.4,5,.83,7.4,1.33,4,.73,8,1.62,12,2.58,3.25.76,6.49,1.59,9.7,2.45,7,1.88,13.88,4,20.74,6.48,1.43.53,2.84,1,4.24,1.57,5.13,1.83,10.21,3.9,15.22,6.09a293.61,293.61,0,0,1,26.49,13.27c1.19.68,2.42,1.4,3.62,2.07A285.92,285.92,0,0,1,1297.26,819c5.89,4.32,11.6,8.92,17.16,13.72.42.38.84.7,1.25,1.08,4.19,3.65,8.31,7.43,12.29,11.4C1331.53,848.68,1335.05,852.3,1338.48,856Z" transform="translate(-834.5 -762.36)"/><path class="cls-6" d="M1338.48,856c1.14,1.24,2.31,2.52,3.42,3.79a2771.86,2771.86,0,0,1-197.71,202.57c-86.83,80-180.37,157.51-225.85,194.57-2.42-2.42-4.73-4.87-7.05-7.38-3.52-3.82-6.94-7.74-10.19-11.68s-6.62-8.22-9.72-12.43C946,1189.81,1058.56,1114,1130,1048.12c89.85-82.78,159-178.39,184.39-215.38.42.38.84.7,1.25,1.08,4.19,3.65,8.31,7.43,12.29,11.4C1331.53,848.68,1335.05,852.3,1338.48,856Z" transform="translate(-834.5 -762.36)"/><path class="cls-6" d="M1392.51,940a3.69,3.69,0,0,1,.3.67c1.64,3.85,3.17,7.72,4.56,11.58s2.68,7.47,3.92,11.23c1.85,5.81,3.56,11.67,5,17.56q2.84,10.95,4.69,22.09c-41,25.65-119.43,77.26-199,143-78.62,65-141.92,141.63-174.22,183.8-2-.58-3.92-1.22-5.89-1.9-4.73-1.55-9.37-3.26-14-5.11-4.43-1.71-8.83-3.58-13.15-5.57-6.86-3.1-13.61-6.49-20.19-10.17,31.68-28.42,98.43-89.15,207.68-192C1295.26,1018.22,1359.53,965.44,1392.51,940Z" transform="translate(-834.5 -762.36)"/><path class="cls-7" d="M1268.13,800.1c-22.18,32-80.44,109.24-185.92,206.41-82,75.54-165,135-219.55,171.27q-3.52-7.35-6.55-14.78c-1.69-4.18-3.3-8.35-4.79-12.58C905.05,1118.1,987,1063,1064.77,987.57c87.14-84.54,137.61-163.49,161.65-206.83,5.13,1.83,10.21,3.9,15.22,6.09A293.61,293.61,0,0,1,1268.13,800.1Z" transform="translate(-834.5 -762.36)"/><path class="cls-7" d="M1191.74,770.24c-18.33,28.47-67.38,97-160.91,179.11A2151.26,2151.26,0,0,1,838.3,1099.73c-.54-3.14-1-6.27-1.4-9.47,36.33-24,105.25-73.16,186.39-147.71,85.64-78.71,130.35-144.72,149-176.22,2.47.4,5,.83,7.4,1.33C1183.73,768.39,1187.74,769.28,1191.74,770.24Z" transform="translate(-834.5 -762.36)"/><path class="cls-7" d="M1414.65,1071.41c-.33,6.42-1,12.78-1.81,19-27.71,18.15-78.73,54.08-137.84,107.58-61.58,55.71-104.66,113.53-125.49,144.12-5.15.41-10.23.7-15.37.86H1134c26.91-35.8,75.59-96.24,136.9-153.42C1335.73,1129.16,1387.91,1090.19,1414.65,1071.41Z" transform="translate(-834.5 -762.36)"/><path class="cls-7" d="M1365.13,889.58c1.87,2.72,3.65,5.48,5.42,8.24q6.21,9.84,11.51,19.95c-35.74,29.87-116.23,97.66-220.52,189.08S990.48,1264.51,962.2,1293.43q-4.55-3.08-9-6.4c-3.5-2.57-7-5.22-10.34-8,30.46-28.7,90.54-85,202.85-189.41C1275.45,969,1338.19,913.05,1365.13,889.58Z" transform="translate(-834.5 -762.36)"/><path class="cls-6" d="M1162.08,764.78c-23.25,19.71-68.54,55.2-134.74,94.44S895.79,923.86,858.8,936.64a287.93,287.93,0,0,1,17.29-33.53,280.87,280.87,0,0,1,18.09-26.67c26.47-8.12,63.49-22,108.44-45.17,43.33-22.36,73.2-47.15,92.89-67.46q13.62-1.38,27.22-1.44A290.54,290.54,0,0,1,1162.08,764.78Z" transform="translate(-834.5 -762.36)"/><path class="cls-8" d="M1375.07,905.18c2.1,3.54,4.09,7.09,6,10.69A287.38,287.38,0,0,1,1414.34,1025a284.77,284.77,0,0,1,.08,54.85c-.13,2-.34,4-.58,6-.17,1.74-.38,3.49-.61,5.21l-.55,3.75q-1.35,9.45-3.38,18.82a285.51,285.51,0,0,1-10.9,38.34c-1.61,4.44-3.29,8.86-5.12,13.21a289.25,289.25,0,0,1-17.53,35.15c-.86,1.49-1.72,3-2.66,4.41-1.27,2.17-2.65,4.34-4,6.41a290.32,290.32,0,0,1-235.74,132.43c-3,.12-6,.16-9.14.09s-6,0-9-.15c-2.27-.07-4.56-.18-6.86-.29-5.94-.39-11.86-.91-17.79-1.75a272.93,272.93,0,0,1-28.66-4.83,294.77,294.77,0,0,1-32.82-9.38c-4.65-1.6-9.2-3.31-13.74-5.19-6.75-2.75-13.42-5.76-20-9.07-6-2.93-11.85-6.14-17.57-9.55a278.69,278.69,0,0,1-33.71-23.17c50.38-21.86,150.43-72.19,253.27-163.34C1307,1019.7,1307.68,884,1301.13,822.11a278.12,278.12,0,0,1,23,19.45,287.53,287.53,0,0,1,34.32,38.63.32.32,0,0,1,.15.25c3.64,4.86,7.13,9.92,10.46,15.07C1371.12,898.7,1373.13,901.91,1375.07,905.18Z" transform="translate(-834.5 -762.36)"/><g class="cls-9"><ellipse class="cls-10" cx="979.66" cy="952.41" rx="176.73" ry="98.35" transform="translate(-1182.24 513.88) rotate(-57.9)"/></g><path class="cls-11" d="M984.06,839.3c9.86,6.18-1.24,41.62-24.79,79.16s-50.62,63-60.48,56.78,1.24-41.63,24.79-79.17S974.21,833.11,984.06,839.3Z" transform="translate(-834.5 -762.36)"/><path class="cls-11" d="M896.13,992.47a14.76,14.76,0,1,1-20.36,4.66A14.76,14.76,0,0,1,896.13,992.47Z" transform="translate(-834.5 -762.36)"/><g class="cls-12"><path class="cls-13" d="M1330.37,848.82c-4.33-4.35-8.79-8.58-13.37-12.57a.31.31,0,0,0-.19-.21,287.7,287.7,0,0,0-41.6-30.66,282.88,282.88,0,0,0-26.55-14.24c-6-2.86-12.17-5.46-18.33-7.87-3.52-1.4-7.08-2.64-10.64-3.88l0,0c-5.32-1.85-10.75-3.53-16.16-5l-5.24-1.41,0,0c-6.2-1.61-12.46-3-18.78-4.22l-5.32-1c-5-.84-10.14-1.61-15.21-2.21l-.76-.07c-5.33-.67-10.66-1.08-16-1.37,3.12.44,6.24.84,9.33,1.36l5.33,1c6.31,1.19,12.58,2.6,18.77,4.22l0,0,5.25,1.41c5.4,1.51,10.83,3.19,16.15,5l0,0c3.56,1.24,7.12,2.47,10.64,3.88,6.16,2.4,12.31,5,18.32,7.87a279.35,279.35,0,0,1,26.55,14.24,288.34,288.34,0,0,1,41.61,30.66.29.29,0,0,1,.19.2c4.57,4,9,8.23,13.36,12.58,2.67,2.69,5.31,5.41,7.88,8.2,2.79,3,5.48,6.09,8.1,9.21a287.29,287.29,0,0,1,55.21,99.79,284.09,284.09,0,0,1,11.48,53.63c.28,2,.5,4,.68,6,.2,1.73.35,3.49.48,5.22l.25,3.78q.64,9.53.6,19.11a285,285,0,0,1-2.69,39.77c-.65,4.68-1.37,9.35-2.26,14a288.45,288.45,0,0,1-9.84,38c-.53,1.63-1.06,3.27-1.69,4.86-.79,2.39-1.69,4.81-2.61,7.12a290.33,290.33,0,0,1-203.06,178.54c-2.94.74-5.89,1.41-8.92,2s-5.85,1.25-8.85,1.73c-2.24.4-4.51.77-6.77,1.14-5.9.86-11.79,1.58-17.77,2a273.29,273.29,0,0,1-29,1.23c-5-.06-9.94-.29-14.91-.6,1.17.16,2.32.39,3.49.54a293.45,293.45,0,0,0,34.06,2.35,275.65,275.65,0,0,0,29-1.22c6-.42,11.88-1.14,17.77-2,2.27-.37,4.54-.74,6.77-1.15,3-.47,6-1.08,8.85-1.72s6-1.25,8.93-2A290.33,290.33,0,0,0,1396,1157.52c.92-2.31,1.81-4.73,2.61-7.11.63-1.6,1.16-3.23,1.69-4.87a291.2,291.2,0,0,0,9.84-38c.88-4.64,1.61-9.31,2.26-14a286.45,286.45,0,0,0,2.69-39.77q0-9.59-.61-19.11l-.24-3.78c-.13-1.73-.29-3.49-.48-5.22-.18-2-.4-4-.68-6A284.22,284.22,0,0,0,1401.55,966a287.32,287.32,0,0,0-55.2-99.78c-2.62-3.13-5.31-6.19-8.1-9.21C1335.68,854.24,1333,851.51,1330.37,848.82Z" transform="translate(-834.5 -762.36)"/></g></svg>