<svg xmlns="http://www.w3.org/2000/svg" xmlns:xlink="http://www.w3.org/1999/xlink" width="82.827" height="82.83" viewBox="0 0 82.827 82.83">
  <defs>
    <linearGradient id="linear-gradient" x1="0.5" x2="0.5" y2="1" gradientUnits="objectBoundingBox">
      <stop offset="0" stop-color="#7b1562"/>
      <stop offset="1" stop-color="#c70039"/>
    </linearGradient>
  </defs>
  <path id="instagram-sketched" d="M42.231,82.831h-.825c-6.493.016-12.492-.149-18.326-.5A24.5,24.5,0,0,1,8.96,76.981a22.665,22.665,0,0,1-7.616-12.3,54.486,54.486,0,0,1-1.25-13.01C.052,48.651.009,45.068,0,41.424c.009-3.659.052-7.242.094-10.266a54.492,54.492,0,0,1,1.25-13.01A22.666,22.666,0,0,1,8.96,5.852,24.5,24.5,0,0,1,23.081.507C28.915.152,34.915-.013,41.422,0c6.494-.014,12.492.15,18.326.5a24.5,24.5,0,0,1,14.12,5.345,22.662,22.662,0,0,1,7.616,12.3,54.488,54.488,0,0,1,1.25,13.01c.042,3.024.085,6.607.094,10.251-.008,3.659-.052,7.242-.094,10.266a3.236,3.236,0,1,1-6.47-.088c.041-3.006.085-6.566.093-10.177-.008-3.6-.052-7.156-.093-10.162a49.57,49.57,0,0,0-1.05-11.5,16.337,16.337,0,0,0-5.435-8.881,17.824,17.824,0,0,0-10.424-3.9c-5.7-.346-11.561-.506-17.933-.493-6.386-.015-12.252.147-17.948.493a17.829,17.829,0,0,0-10.424,3.9,16.337,16.337,0,0,0-5.435,8.881,49.57,49.57,0,0,0-1.05,11.5c-.041,3.006-.084,6.566-.093,10.177.009,3.6.052,7.156.093,10.162a49.57,49.57,0,0,0,1.05,11.5,16.337,16.337,0,0,0,5.435,8.881,17.826,17.826,0,0,0,10.424,3.9c5.7.346,11.563.508,17.933.492,6.387.015,12.251-.146,17.948-.492a17.826,17.826,0,0,0,10.424-3.9,15.547,15.547,0,0,0,4.442-5.951,3.236,3.236,0,0,1,5.938,2.572,21.948,21.948,0,0,1-6.291,8.394,24.492,24.492,0,0,1-14.12,5.345c-5.587.34-11.326.506-17.517.506ZM61.474,41.416A20.222,20.222,0,1,0,41.252,61.638,20.245,20.245,0,0,0,61.474,41.416Zm-6.471,0A13.751,13.751,0,1,1,41.252,27.665,13.767,13.767,0,0,1,55,41.416Zm8.736-26.693a4.853,4.853,0,1,0,4.853,4.853A4.853,4.853,0,0,0,63.739,14.723Zm0,0" transform="translate(0 -0.001)" fill="url(#linear-gradient)"/>
</svg>
