<svg xmlns="http://www.w3.org/2000/svg" xmlns:xlink="http://www.w3.org/1999/xlink" width="80.177" height="80.177" viewBox="0 0 80.177 80.177">
  <defs>
    <linearGradient id="linear-gradient" x1="0.5" x2="0.5" y2="1" gradientUnits="objectBoundingBox">
      <stop offset="0" stop-color="#7b1562"/>
      <stop offset="1" stop-color="#c70039"/>
    </linearGradient>
  </defs>
  <path id="twitter" d="M70.663,12.879l-.04-.189a20.625,20.625,0,0,0,7.36-11.344,30.681,30.681,0,0,1-10.648,5C64.333,2.418,60.327,0,55.59,0c-9.078,0-16.6,9.025-16.6,20.189a46.246,46.246,0,0,0,.269,4.819,41.526,41.526,0,0,1-22.375-9.5A47.863,47.863,0,0,1,7.626,5.694,2.781,2.781,0,0,0,3.919,4.548,4.073,4.073,0,0,0,2.071,8.657c.075.6,1.6,12.368,7.383,22.625a7.219,7.219,0,0,1-2.3-.811,2.623,2.623,0,0,0-3.506.332,4.445,4.445,0,0,0-.981,4.236,26.678,26.678,0,0,0,12.915,15.55,13.253,13.253,0,0,1-4.082.749H11.43A3.246,3.246,0,0,0,8.478,53.9a4.4,4.4,0,0,0,1.038,4.322A31.464,31.464,0,0,0,21.55,64.763a19.194,19.194,0,0,1-9.021,3.1,25.341,25.341,0,0,1-8.652-.653c-1.589-.478-3.209.625-3.721,2.532A4.163,4.163,0,0,0,1.924,74.5c.452.231,11.194,5.68,21.878,5.68,7.416,0,12.971-.829,18.01-2.689a37.246,37.246,0,0,0,16.318-12.1,4.489,4.489,0,0,0-.023-5.438,2.74,2.74,0,0,0-4.429.029C45.31,70.359,35.682,72.487,23.8,72.487q-.417,0-.836-.014a24.7,24.7,0,0,0,8.426-7.932,4.564,4.564,0,0,0,.428-4.032,3.191,3.191,0,0,0-2.758-2.249,25.387,25.387,0,0,1-8.538-1.842,14.789,14.789,0,0,0,4.845-4.889,4.581,4.581,0,0,0,.409-3.715,3.371,3.371,0,0,0-2.361-2.377A20.164,20.164,0,0,1,12.4,39.12a18.166,18.166,0,0,0,4.174-.78A3.547,3.547,0,0,0,18.842,35.6a4.452,4.452,0,0,0-.853-3.761,39.3,39.3,0,0,1-6.378-11.448q.773.679,1.61,1.365c6.217,5.073,16.441,11.121,29.842,11.121a2.974,2.974,0,0,0,2.485-1.51,4.563,4.563,0,0,0,.538-3.342,41.74,41.74,0,0,1-.831-7.838,13.81,13.81,0,0,1,3.03-8.806,9.471,9.471,0,0,1,7.3-3.692,8.861,8.861,0,0,1,7.178,3.918,17.214,17.214,0,0,1,3,8.75v2.33a2.771,2.771,0,0,0,.023.322c-.013.147-.023.3-.023.447a63.218,63.218,0,0,1-3.917,23.131,4.274,4.274,0,0,0,1.458,5.136,2.655,2.655,0,0,0,1.36.383,3.143,3.143,0,0,0,2.822-2.174,72.273,72.273,0,0,0,4.54-26.476c0-.146-.009-.291-.021-.433a3.135,3.135,0,0,0,.021-.336V20A39.748,39.748,0,0,0,80.176,9.229s-5.774,3.359-9.513,3.65Zm0,0" transform="translate(0.001 0)" fill="url(#linear-gradient)"/>
</svg>
