<svg id="Layer_1" data-name="Layer 1" xmlns="http://www.w3.org/2000/svg" xmlns:xlink="http://www.w3.org/1999/xlink" viewBox="0 0 1463.23 1273.65"><defs><style>.cls-1{fill:none;}.cls-2{fill:#ffcf4d;}.cls-3{clip-path:url(#clip-path);}.cls-4{fill:#f4b425;}.cls-4,.cls-5,.cls-6{fill-rule:evenodd;}.cls-5{fill:#ffcf4e;}.cls-6{fill:#fee6a5;}</style><clipPath id="clip-path" transform="translate(-715.86 -461.37)"><ellipse class="cls-1" cx="1417.6" cy="1099.37" rx="614.4" ry="585.3"/></clipPath></defs><ellipse class="cls-2" cx="701.73" cy="638" rx="614.4" ry="585.3"/><g class="cls-3"><path class="cls-4" d="M1641,461.37c-68.66,98-217.2,94.35-321.21,116-52.89,11-196,78.69-173.17,124.27,23.46,46.77,109.8-43.57,126.7-14.63,25.73,44-130.42,104-165.26,171.43-12.92,25-23.79,70.81-3.91,95.44,26.44,32.73,81.24-17.12,99.23-34.65,62.45-60.81,107.13-180.88,207.26-191.76,12.38-1.35,24.91.39,36.87,3.62,59.32,16,69.51,56.24,21.58,98.31-14.49,12.71-58.65,45.68-12.78,50.47,49.62,5.17,88.53-43.1,134.77-54,36.57-8.59,74.93,5.7,112.11,1.06,83.89-10.43,160-59.64,209.57-126.52,21-28.31,42.77-78,33.65-114.14Z" transform="translate(-715.86 -461.37)"/><path class="cls-4" d="M715.86,1072.12c46.73,71.06,113.94,111.45,200.31,90.94,44-10.44,120-54.9,162.49-20.51,19.07,15.45,19.06,41.64,15.26,63.71-2.23,12.92-8.81,34.26,6.48,42.94,35.09,19.93,100.42-63.9,124.39-7.65,19.71,46.25-21.69,80.29-32.88,120.19-6.7,23.88,6.49,43.06,31,47.56,83.56,15.3,155.73-77.36,211-124.09,18.2-15.38,62.46-53.69,82.5-17.6,10.22,18.44,3.26,43.25-4.31,61.13-24.35,57.56-86.49,68.64-116.79,118-25.76,42,17.85,91.07-26.8,125.78-63.64,49.44-113.07-7.11-178.14-3.57-45.32,2.47-71,36.47-110.78,51.94-103.24,40.12-194.37-15.73-245.54-104.33Z" transform="translate(-715.86 -461.37)"/><path class="cls-4" d="M2015,800.94c-88.87,84.6-176.36,177.35-298.53,211.12-54.21,15-106.1,17-161.47,11.47-16.7-1.66-45.81-4.42-54.71,14.65-13.2,28.28,35.51,48.86,54,56.15,45.06,17.74,101.18,15.85,148.33,8.09,25-4.1,62.26-17.94,86.72-4.57,14.31,7.83,12.26,30.06,7.35,42.78-9.86,25.57-29.29,39.95-50.73,55.45-12.34,8.92-30.23,18.77-14.85,34.58,28.87,29.65,96.17,2.12,127.91-8.73,119.62-40.89,246.1-117.11,320.08-220.66Z" transform="translate(-715.86 -461.37)"/><path class="cls-4" d="M1342,1128.31l1,0,1,.06,1,.08,1,.1,1,.11,1,.13,1,.16,1,.18,1,.2,1,.22,1,.25,1,.27,1,.27,1,.32,1,.33,1,.36,1,.38.19.08v.05h.83l.94,0,.93,0,.94.06,1,.08,1,.1,1,.12,1,.13.95.16,1,.18,1,.2,1,.22,1,.25,1,.28,1,.29,1,.32,1,.35,1,.38.95.4.94.44.94.47.94.49.91.52.92.56.9.59.9.63.87.66.87.68.84.73.83.76.8.78.78.83.76.84.7.85,1,1.23.89,1.21.85,1.22.81,1.24.79,1.25.73,1.25.39.71.33.56.68,1.28.64,1.28.6,1.31.55,1.32.51,1.32.47,1.34.43,1.35.36,1.35.34,1.36.28,1.38.23,1.37.19,1.38.15,1.37.09,1.37,0,1.38v1.37l0,1.37-.09,1.35-.15,1.34-.18,1.33-.23,1.32-.27,1.29-.31,1.29-.35,1.27-.39,1.25-.42,1.23-.46,1.21-.51,1.18-.52,1.17-.56,1.14-.58,1.13-.61,1.1-.64,1.08-.67,1.05-.69,1-.72,1-.74,1-.76,1-.77.95-.8.93-.82.9-.82.89-.85.86-.87.83-.89.83-.14.14-.75.68-.91.79-.92.77-.93.76-1,.74-1,.72-1,.7-1,.69-1,.66-1,.65-1,.63-1,.62-1,.6-1.06.58-1.07.56-1.07.55-1.08.52-1.1.52-1.1.49-1.11.48-1.12.46-1.12.44-1.14.43-1.14.41-1.15.39-1.17.37-1.16.36-1.17.33-1.18.33-1.19.3-1.19.28-1.2.27-1.21.24-1.2.23-1.22.21-1.22.19-1.23.17-1.23.14-1.23.14-1.24.1-1.25.09-1.24.06-1.25,0-1.26,0h-1.25l-1.26,0-1.27-.05-1.26-.08-1.27-.1-1.27-.12-1.27-.16-1.27-.18-1.28-.2-1.27-.23-1.27-.26-1.27-.29-1.27-.31-1.26-.36-1.28-.38-1.26-.4-1.25-.45-1.25-.47-1.25-.51-1.24-.54-1.23-.57-1.23-.61-1.21-.66h0l-1.2-.67-1.19-.73-1.18-.75-1.17-.78-1.15-.83-1.12-.87-1.12-.89-1.1-.94-1.06-1-1-1-1-1-1-1-.91-1-.88-1-.86-1.06-.82-1.07-.79-1.11-.76-1.11-.73-1.14-.68-1.16-.34-.58-.31-.6-.59-1.2-.56-1.21-.52-1.23-.49-1.24-.44-1.24-.4-1.26-.36-1.25-.33-1.28-.29-1.27-.24-1.27-.2-1.28-.17-1.27-.12-1.27-.09-1.27-.06-1.26v-1.26l0-1.25.06-1.24.09-1.24.12-1.22.16-1.22.19-1.21.21-1.18.24-1.17.28-1.18.31-1.15.32-1.13.36-1.12.38-1.11.4-1.09.42-1.09.45-1.06.47-1,.49-1,.5-1,.54-1,.54-1,.57-1,.58-1,.6-1,.34-.52.31-.4.7-.87.72-.85.74-.83.74-.83.76-.8.77-.79.79-.78.79-.75.79-.75.82-.72.83-.72.83-.69.84-.68.85-.67.87-.66.67-.49.2-.14.91-.6.91-.57.92-.57.93-.55.92-.53.94-.53,1-.5,1-.49.95-.47,1-.47,1-.45,1-.42,1-.43,1-.4,1-.38,1-.38,1-.36,1-.33,1-.34,1-.3,1-.3,1-.28.12,0,.91-.21,1-.23,1-.21,1-.19,1-.18,1-.16,1-.14,1-.12,1-.12,1-.08,1-.07,1-.06,1,0H1342Zm12.29,44.09h0Zm0,0Zm0,0Zm0,0h0Zm0,0h0Zm0,0h0l.17-.07Zm0,0Zm0,0h0Zm0,0h0l.08-.09Zm0,0h0Zm0,0h0Zm0,0h0l.16-.18Zm0,0h0l.37-.17Zm0,0v0h0Zm0,0h0l.3-.14Zm0,0h0l.21-.23Zm0,0h0l.29-.3Zm.26-.2.34-.25-.37.27.33-.26-.36.29.31-.28-.37.32.3-.29-.36.34.3-.29-.37.35.37-.19-.33.16.41-.21-.34.17.39-.22-.32.18.38-.22-.34.19.37-.24-.34.2.36-.23-.34.22.35-.24-.34.23.34-.25-.35.25.34-.25Z" transform="translate(-715.86 -461.37)"/><path class="cls-4" d="M1010.15,970l1.25,0,1.2,0,1.17.05,1.14.07,1.12.07,1.1.1,1.09.12,1.06.14,1.05.16,1,.18,1,.2,1,.23,1,.26,1,.3,1,.34,1,.38,1,.43,1.06.49,1.07.56,1.1.65,1.09.74,1.1.83,1.08.95,1.06,1.09,1,1.2,1,1.33.86,1.45.73,1.55.61,1.62.44,1.65.29,1.67.15,1.64v1.59l-.1,1.51-.21,1.43-.29,1.35-.36,1.26-.4,1.16-.45,1.08-.47,1-.48,1-.51.89-.52.84-.52.79-.54.75-.53.73-.55.68-.56.67-.55.64-.57.62-.56.61-.57.58-.58.58-.62.6-1.14,1-.17.16-1,.89-1.24,1-1.26,1-1.27,1-1.31,1-1.32,1-1.33.92-1.35.92-1.38.91-1.37.88-1.37.87-1.39.86-1.4.84-1.38.82-1.39.81-1.37.79-1.37.77-1.36.76-1.34.73-1.32.71-1.29.69-1.3.68-2.43,1.24-2.33,1.14-2.16,1-2,.9-1,.43-.91.39-.87.35-.87.34-.89.33-.85.28-1.33.42L984,1038l-1.25.36-1.28.35-1.29.34-1.31.32-1.33.31-1.34.29-1.36.27-1.38.26-1.39.23-1.41.21-1.43.18-1.44.17-1.47.14-1.47.11-1.5.06-1.49,0h-1.54l-1.25,0h-.28l-1.54-.09-1.56-.12-1.58-.17-1.57-.21-1.59-.27-1.53-.29-.87-.19-.81-.19-.79-.2-.8-.22-.81-.23h0l-.8-.25-.82-.25-.8-.28-.79-.29-.81-.3-.8-.33-.89-.37-1-.43-1.08-.53-1.15-.6-1.24-.69-1.29-.75-.74-.47-.73-.47-.74-.49-.76-.54-.78-.57-.8-.61-.83-.67-.84-.73-.86-.8-.88-.89-.92-1-.91-1.12-.85-1.15-.55-.82-.47-.76-.46-.82-.44-.89-.43-1-.4-1-.37-1.12-.32-1.19-.26-1.28-.18-1.34-.1-1.42v-1.47l.11-1.51.24-1.52.35-1.51.47-1.48.13-.31.45-1.11.63-1.25.77-1.31.75-1.14.78-1.1.82-1,.82-1,.86-.92.88-.88.88-.82.88-.78.91-.74.89-.69.9-.66.92-.63.91-.59.91-.57.91-.54.91-.5.92-.49.9-.46.91-.45.91-.42.91-.4.9-.39.9-.37.9-.36.9-.35.89-.32.94-.34,1.71-.58h0l1.8-.41,1.79-.37,1.75-.33,1.73-.32,1.69-.28.61-.1,1.08-.06,1.66-.1.88,0,1.69-.61,4.75-1.75,2.44-.87,2.44-.87,2.48-.85,2.5-.85,2.54-.81,2.55-.8,1.32-.39,1.3-.39,1.32-.37,1.33-.35,1.33-.36,1.34-.35,1.36-.32,1.39-.33,1.85-.41,1-.2,1-.2,1-.18,1-.18,1-.16,1-.14,1.07-.15,1.1-.12,1.09-.1,1.12-.09,1.14-.07,1.15,0h2.3Zm-58,50.21-.4.44.42-.46-.39.46.45-.5-.37.47.43-.56-.34.48.41-.56-.49.42.39-.33-.47.43.4-.36-.44.43.41-.39-.44.45Zm.22-.25v0h0l-.3.46.32-.49Zm0,0-.21.35.23-.35Zm-.42.33.38-.29v0Zm.15-.13.26-.2h0Zm.17-.16.13-.09h0Zm.12-.06h0Zm0,0h0Zm63-18.33.57.23-.48-.2.53.19-.52-.2.48.17-.55-.19.45.12-.58-.18.41.11-.53-.14.48.24-.42-.22.62.28Zm0,0-.27-.14h0Zm-.23-.14.32.08-.35-.09Zm0,0h0Zm0,0,.1,0-.1,0Zm0,0,0,0h0Zm0,0h0Zm-.06,0Z" transform="translate(-715.86 -461.37)"/><path class="cls-4" d="M1844.72,1327l1.49,0,1.48,0,1.48.07,1.48.09,1.49.12,1.47.13,1.48.17,1.47.19,1.48.23,1.47.24,1.47.28,1.45.3,1.45.34,1.45.37,1.44.4,1.43.42,1.43.47,1.41.51,1.41.53,1.4.57,1.37.6,1.36.64,1.36.68,1.33.71,1.31.75,1.29.79,1.28.81,1.25.86,1.23.9,1.21.93,1.18,1,1.15,1,1.13,1,1.11,1.07.65.66.35.51.89,1.32.84,1.34.81,1.37.76,1.38.74,1.4.7,1.42.67,1.44.64,1.45.6,1.48.4,1.14-5,4-2.24,1.66.11,1,.12,1.42.07,1.42v.52l.07.87,0,1.38v1.37l0,1.37-.09,1.34-.13,1.33-.18,1.3-.22,1.29-.25,1.26-.29,1.24-.33,1.22-.35,1.18-.38,1.18-.41,1.15-.43,1.11-.46,1.1-.48,1.07-.49,1.06-.52,1-.53,1-.55,1-.56,1-.58.94-.58.93-.59.91-.61.89-.61.87-.63.86-.62.84-.64.82-.65.81-.64.79-.65.77-.65.76-.66.75-.69.77-1.29,1.38-1.31,1.38-1.32,1.33L1872,1412l-1.3,1.23-1.27,1.17-1.25,1.13-1.22,1.09-1.18,1-1.16,1-2.14,1.82-.17.13-1.47,1.25-1.67,1.39-1.67,1.37-1.69,1.36-1.7,1.34-1.71,1.33-1.73,1.3-1.73,1.29-1.75,1.28-1.76,1.25-1.76,1.26-1.79,1.22-1.79,1.21-1.8,1.2-1.81,1.18-1.82,1.16-1.83,1.15-1.84,1.14-1.86,1.12-1.86,1.1-1.87,1.08-1.88,1.07-1.88,1-1.9,1-1.9,1-1.91,1-1.93,1-1.93,1-1.93,1-1.94.94-2,.93-2,.91-2,.9-.49.21-1.48.67-2,.88-2,.86-2,.85-2,.83-2,.81-2,.81-2,.78-2,.76-2,.76-2,.73-2,.72-2,.71-2,.69-2,.67-2.05.66-2.06.63-2.06.63-2.07.6-2.07.6-2.06.58-2.08.56-2.08.54-2.09.54-2.08.51-2.08.49-2.09.48-2.1.47-2.09.45-2.1.44-2.09.41-1.71.34-1.82.32-1.93.35-2,.32-2.12.32-2.2.32-2.28.29-2.31.24-1.24.13-1.23.11-1.23.1-1.25.08-1.26.07-1.29.07-1.28,0-1.31,0-1.32,0h-2.67l-1.35,0-1.36-.06-1.38-.08-1.38-.1-1.4-.12-1.4-.16-1.42-.18-1.41-.2-1.45-.24-1.44-.27-1.44-.31-1.46-.35-1.47-.38-1.47-.44-1.47-.48-1.49-.52-1.49-.58-1.48-.65-1.41-.66-.83-.4-.73-.39-.75-.4-.74-.43-.73-.45-.73-.45-.73-.47-.67-.46-.06,0-.74-.49-.75-.49-.74-.51-.74-.54-.72-.56-.73-.58-.7-.6-.71-.63-.7-.63-.68-.66-.67-.69-.66-.71-.65-.72-.64-.74-.61-.77-.62-.78-.58-.81-.57-.81-.56-.84-.53-.86-.52-.86-.49-.9-.48-.89-.46-.92-.43-.92-.42-.94-.39-.94-.39-1-.38-1.09-.35-1.16-.33-1.16-.28-1.19-.24-1.19-.2-1.21-.16-1.22-.12-1.21-.08-1.21,0-1.22v-1.22l0-1.21.09-1.19.12-1.18.16-1.18.19-1.16.23-1.14.26-1.13.29-1.1.31-1.09.35-1.06.37-1,.39-1,.4-1,.44-1,.44-1,.47-.93.48-.92.49-.88.51-.87.51-.85.53-.82.53-.81.55-.79.56-.77.56-.76.57-.74.62-.8,1.1-1.33,1.18-1.36,1.2-1.3,1.2-1.25,1.22-1.21,1.23-1.17,1.24-1.14,1.24-1.11,1.25-1.07,1.25-1,1.27-1,1.26-1,1.25-1,1.26-.95,1.26-.92,1.26-.89,1.25-.89.9-.62.36-.2,1.29-.73,1.29-.7,1.27-.68,1.27-.67,1.28-.66,2.4-1.22,2.37-1.17,2.28-1.1,2.17-1,2-1,3.62-1.67,1.53-.73,1.3-.63,1-.5.83-.43,8.13-4.27,8.25-4.35,8.22-4.34,4.09-2.17,4-2.13.06,0,1.26-.51,1.33-.56,1.43-.64,1.53-.69,1.61-.75,1.68-.81,1.76-.85,1.82-.9,3.86-1.94,4.07-2.06,4.27-2.16,4.43-2.24,2.31-1.15,2.33-1.15,2.37-1.16,2.4-1.16,2.44-1.17,2.47-1.15,2.5-1.15,2.52-1.14,2.56-1.11,2.59-1.11,2.62-1.08,2.6-1,1.36-.54,1.34-.51,1.35-.51,1.35-.5,1.35-.49,1.36-.48,1.36-.47,1.38-.46,1.38-.45,1.39-.44,1.39-.43,1.39-.41,1.41-.4,1.41-.39,1.42-.38.14,0,1.32-.16,1.49-.17,1.47-.16,1.47-.13,1.49-.13,1.49-.11,1.47-.09,1.49-.08,1.48,0,1.49,0,1.49,0Zm12.23,46.22h0l-.06-.09Zm-.24-1.25-.12-.33.19.66-.15-.32.22.66-.15-.3.25.68-.16-.3.19.44v-.07l0-.17,0-.17,0-.14v-.72l-.06-.28.07.66-.18-.73.09.66-.2-.74.11.66-.23-.73.13.66-.26-.74Z" transform="translate(-715.86 -461.37)"/><path class="cls-4" d="M986,734.94l.13-.28-.26.68-.25.67.13-.3-.23.63-.2.64.12-.33-.19.6-.16.59.12-.37L985,738l-.13.55.1-.4-.16.73.1-.41-.14.72.09-.44-.09.54h0l.06-.28-.05.29h0v0h0l.14.11-.15-.1h0l.3.21-.3-.19h0l.48.33-.32-.19.37.24.36.24-.3-.17.39.25.41.23-.28-.13.42.23.44.25-.27-.12.46.23.47.23-.26-.1.49.24.49.23-.22-.09.51.24.52.22-.32-.11,1.11.46,1,.38,1,.39,1.08.38,1.14.38,1.19.38,1.24.37,1.31.35,1.34.37,1.39.35,1.43.35,1.47.34,1.51.34,1.54.33,1.58.33,1.61.32,1.62.31,3.36.63,3.43.61.38.07,6.71,1.31,3.61.69,3.66.72,3.66.73,1.86.38,1.85.38,1.84.4,1.86.41,1.84.41,1.84.44,1.85.44,1.83.46,1.82.47,1.82.49,1.81.52,1.8.52,1.8.56,1.78.57,1.76.6,1.75.63,1.74.65.3.12,1.33.84,1.54,1,.82.54.78.53.76.52.76.54.74.54.75.55.73.56.73.56.71.57.72.57.69.58.69.59.67.6.67.61.66.61.65.63.62.62.63.65.6.65.6.66.58.67.57.67.56.69.53.69.53.72.5.71.49.73.47.74.45.75.43.76.43.76.39.78.38.78.34.79.34.81.31.8.29.82.27.82.25.84.22.83,0,.22.23.59.28.82.25.83.24.83.21.85.18.85.17.86.14.89.13.87.1.89.06.9.06.9,0,.92v1.84l0,.94-.07.94-.08,1-.1.95-.12,1-.16,1-.16,1-.19,1-.22,1-.22,1-.26,1-.28,1-.29,1-.32,1-.34,1-.36,1-.38,1.06-.41,1.06-.42,1.09-.45,1.08-.47,1.09-.49,1.12-.51,1.11-.51,1.06-.5,1-.51,1-.52,1-.53,1-.54,1-.53,1-.56,1-.55,1-.57,1-.57,1-.58,1-.58,1-.2.3-.38.65-.57,1-.58,1-.59.92-.6.93-.59.93-.61.91-.62.91-.61.89-.64.9-.63.88-.64.87-.65.87-.65.86-.66.85-.67.85-.67.84-.68.84-.69.82-.7.82-.69.8-.7.81-.72.81-1.43,1.57-1.45,1.54-1.49,1.53-1.49,1.5-1.53,1.46-1.55,1.45-1.56,1.42-1.59,1.4-1.59,1.37L1051,874l-1.65,1.33-1.65,1.31-1.66,1.29-1.69,1.26-1.71,1.25-1.72,1.23-1.73,1.21-1.76,1.18-1.76,1.17-1.78,1.15-1.79,1.14-1.8,1.12-1.82,1.11-1.82,1.08-1.84,1.07-1.84,1.06-1.87,1-1.87,1-1.87,1-1.89,1-1.9,1-1.9,1-1.92,1-1.91,1-1.93.95-1.94,1-1.94.93-1.94.93-2,.91-2,.92-3.92,1.8-3.94,1.78-4,1.75-4,1.74-4,1.72-7.93,3.44-7.92,3.44-3.94,1.73-3.92,1.74-3.6,1.61-.31.13-3.89,1.78-1.94.88-1.92.9-1.92.91-1.91.9-1.91.92-1.89.93-1.89.94-1.87.93-1.88,1-1.85,1-1.85,1-1.84,1-1.82,1-1.82,1-1.8,1-1.79,1-1.78,1-1.76,1-1.76,1.07L908,948.64l-1.72,1.09-1.71,1.11L902.9,952l-1.68,1.13-1.66,1.17-1.65,1.16-1.62,1.18-1.61,1.2L893.09,959l-1.58,1.24L890,961.5l-1.54,1.27-1.52,1.3-1.5,1.3-1.47,1.33-1.47,1.35L881,969.43l-1.42,1.39-1.39,1.42-1.39,1.43-1.36,1.48-.66.72-.67.75-.66.75-.65.76-.65.76-.63.77-1.23,1.49-1.21,1.52-1.2,1.54-1.18,1.55-1.16,1.59-1.15,1.6-1.13,1.62-1.11,1.64-1.09,1.65L860,995.54l-1,1.67-1,1.71-1,1.71-1,1.72-.93,1.73-.92,1.76-.43.86-.43.87-.42.88-.42.87-.41.89-.39.88-.39.88-.38.88-.37.89-.37.88-.34.88-.35.88-.33.9-.32.88-.31.88-.3.89-.29.89-.28.88-.28.89-.26.88-.25.88-.23.87-.23.88-.22.89-.2.87-.19.87,0,.1-.2.77-.2.86-.2.86-.18.86-.18.86-.16.86-.14.86-.14.85-.13.9v-.08l-.11.89-.1.9v-.09l-.09.89-.07.89v-.1l-.05.9,0,.88v-.09l0,.88v2.46l0,.87,0,.88,0-.1.07.88.07.87v-.1l.09.87.11.86,0-.1.12.86.14.86,0-.1.16.86.17.85,0-.1.19.86.2.83,0-.09.22.84.24.84,0-.09.25.83.28.84,0-.09.29.82.31.83,0-.09.33.82.34.82,0-.1.37.83.38.8,0-.09.32.67.07.15.34.85,0-.09.38.84.39.84,0-.08.42.83.44.83-.05-.07.46.83.49.83-.06-.07.52.83.52.81,0-.05.54.81.57.81,0-.06.6.82.62.8-.05,0,.65.8.67.79,0,0,.69.79.71.78,0,0,.75.77.76.78,0,0,.79.77.81.76,0,0,.85.76.85.73.87.74.9.73.93.71,1,.72,1,.71.75,2.82-2.83.62-1.13-.58-1.11-.58-1.09-.6-1.09-.62-1-.62-1-.63-1-.65-1-.64-1-.66-1-.68-.94-.69-.91-.69-.9-.71-.88-.72-.86-.72-.84-.74-.81-.75-.81-.76-.78-.77-.77-.77-.74-.79-.73-.81-.71-.81-.68-.82-.68-.84-.65-.84-.64-.85-.61-.87-.1-.14-.44-.75-.51-.92-.49-.92-.47-.93-.45-.93-.44-.95-.41-.94-.39-1-.37-1-.35-1-.33-1-.31-1-.29-1-.28-1-.26-1-.23-1-.23-1-.2-1-.18-1-.17-1-.14-1-.13-1-.12-1-.09-1-.07-1-.07-1-.05-1,0-1v-2.06l0-1,0-1,0-1,.06-1,.07-1,.1-1,.11-1,.12-1,.13-1,.15-1,.15-1,.16-.92,0-.12.23-1,.24-1,.25-1,.27-1,.27-1,.3-1,.3-1,.31-1,.31-1,.34-1,.34-1,.36-1,.37-1,.38-1,.39-1,.39-1,.42-1,.41-1,.42-1,.44-1,.45-1,.45-1,.46-1,.47-1,.48-1,.49-1,1-1.9,1-1.91,1.06-1.89,1.09-1.88,1.11-1.85,1.14-1.84,1.17-1.81,1.18-1.8,1.21-1.79,1.23-1.75,1.25-1.74,1.26-1.71,1.29-1.69,1.3-1.66,1.3-1.64,1.32-1.61.72-.85.71-.85.72-.82.73-.83.73-.83.75-.81,1.48-1.6,1.52-1.57,1.53-1.56,1.57-1.53,1.57-1.5,1.6-1.47,1.61-1.45,1.63-1.42,1.65-1.41,1.67-1.37,1.69-1.36,1.7-1.32,1.71-1.32,1.74-1.29,1.75-1.27,1.75-1.24,1.78-1.23,1.79-1.22,1.81-1.18,1.81-1.18,1.83-1.16,1.83-1.13,1.86-1.12,1.85-1.11,1.87-1.08,1.89-1.08,1.88-1.06,1.9-1.05,1.91-1,1.91-1,1.93-1,1.93-1,1.93-1,1.94-1,2-1,2-1,2-.94,2-.94,2-.91,2-.92,2-.91,3.95-1.8.33-.14,3.65-1.63,4-1.75,4-1.75,7.95-3.42,7.93-3.42,3.93-1.72,3.94-1.71,3.89-1.74,3.88-1.74,3.86-1.75,1.91-.88,1.89-.9,1.9-.9,1.89-.91,1.88-.9,1.87-.93,1.86-.93,1.84-.93,1.84-.94,1.83-1,1.81-1,1.8-1,1.78-1,1.78-1,1.76-1,1.75-1,1.73-1,1.72-1,1.7-1.06,1.69-1.07,1.67-1.08,1.66-1.09,1.63-1.11,1.62-1.13,1.61-1.14,1.58-1.15,1.57-1.17,1.55-1.2,1.53-1.2,1.51-1.22,1.48-1.24,1.48-1.26,1.45-1.29,1.43-1.3,1.41-1.31,1.38-1.33,1.38-1.37,1.34-1.37,1.33-1.41,1.31-1.43.63-.71.64-.73.62-.73.63-.73.61-.75.62-.75.61-.75.61-.76.59-.77.59-.77.58-.78.57-.78.58-.8.56-.8.56-.81.56-.81.55-.82.53-.82.54-.83.52-.84.53-.85.51-.85.34-.58.15-.29.49-.88.46-.9.46-.89.45-.9.45-.92.43-.92.44-.92.42-.93.42-.94.41-.95.4-1,.39-1,.39-1,.38-1,.36-1,.35-1,.31-.94.3-.91.28-.91.26-.88.24-.92,0,.1.23-.89.23-.88,0,.11.19-.86.18-.86,0,.12.16-.84.14-.81,0,.13.12-.8.1-.8,0,.15.09-.77.07-.76,0,.14.06-.73,0-.73v-1.66l0-.76v.18l0-.74v.18l-.06-.73,0,.18-.09-.72,0,.19-.1-.7,0,.19-.12-.69,0,.19-.13-.67,0,.19-.14-.67,0,.2-.17-.66.06.2-.19-.65.06.2-.21-.62.07.19-.22-.62.06.2-.22-.61.07.2-.25-.6.08.2-.19-.44-.09-.14.08.2-.37-.54.09.2-.39-.52.1.2-.4-.5.1.2-.41-.5.11.2-.43-.48.11.2-.43-.47.11.19-.45-.46.13.2-.46-.45.12.19-.47-.42.14.18-.5-.42.15.18-.5-.4.14.18-.51-.39.14.18-.52-.38.15.17-.53-.37.15.16-.55-.35.16.16-.57-.34.17.15-.57-.32.16.15-.58-.32.16.15-.59-.31.17.14-.61-.3.17.13-.62-.28.18.14-.55-.21-.56-.19.18.11-.57-.19-.57-.18.17.11-.58-.17-.59-.16.16.1-.6-.16-.61-.13.16.08-.62-.13-.63-.13.16.09-.64-.13-.65-.11.16.08-.66-.1-.67-.1.16.08-.69-.09-.68-.08.15.07-.69-.07-.71-.07.15.06-.68,0-1.34,0h-1.12l-.2-.06-1.28-.31-1.32-.29-1.35-.29-1.39-.27-1.43-.27-1.48-.24-1.5-.24-1.53-.22-1.55-.21-1.6-.2-1.61-.19-1.64-.18-1.65-.17-1.69-.16-1.7-.15-1.72-.15-1.72-.13-3.54-.27-3.56-.25-3.61-.24-6.89-.46-.4,0-3.66-.34-3.63-.36-1.84-.19-1.84-.2-1.82-.21-1.82-.22-1.82-.24-1.81-.25-1.81-.27-1.8-.29-1.8-.3-1.78-.34-1.79-.36-1.78-.38-1.76-.41-1.78-.44-1.75-.48-1.76-.51-1.7-.54-.92-.31-.87-.31-.88-.32-.87-.33-.87-.35-.87-.37-.86-.36-.87-.41-.86-.4-.86-.43-.85-.47v0l-.86-.47-.86-.48-.85-.51-.85-.53-.85-.56-.84-.58-.84-.6-.83-.63-.82-.66-.82-.69-.8-.72-.79-.74-.79-.77-.77-.81-.75-.84-.73-.87-.72-.89-.13-.19-.53-.76-.63-1-.61-1-.58-1-.53-1-.52-1.08-.48-1.1-.45-1.13-.4-1.12-.37-1.16-.32-1.17-.29-1.17-.26-1.17-.21-1.2-.17-1.18-.13-1.2-.1-1.2-.06-1.19,0-1.2v-1.18l0-1.18.09-1.18.11-1.17.14-1.16.17-1.16.2-1.16.24-1.13.25-1.14.28-1.13.31-1.13.34-1.13.36-1.11.38-1.11.4-1.11.42-1.1.45-1.11.47-1.11.49-1.09.52-1.11.53-1.09.56-1.11.57-1.09.6-1.11.62-1.11.63-1.11.68-1.11.68-1.13.7-1.11.72-1.13.73-1.12,1.41-2.09L961,702l1.43-2,1.44-2.05,1.45-2,1.48-2,1.48-2,1.5-2,1.52-2,1.53-2,1.54-2,1.57-2,1.57-1.94,1.6-1.94,1.61-1.92,1.62-1.91,1.53-1.76L985,671.2l2.73-3.05,2.74-3,1.4-1.52,1.4-1.51,1.4-1.51,1.41-1.49,1.42-1.49,1.42-1.48,1.43-1.48,1.44-1.47,1.45-1.48,1.46-1.45,1.45-1.46,1.46-1.45,1.48-1.44,1.48-1.44,1.49-1.43,1.5-1.42,1.49-1.4,1.51-1.41,1.52-1.4,1.53-1.4,1.53-1.38,1.53-1.37,1.55-1.37,1.55-1.36,1.56-1.34,1.56-1.34L1031,626l2.13-1.79,2.14-1.77,2.14-1.78,2.15-1.77,2.16-1.75,2.17-1.74,2.17-1.75,2.19-1.73,2.19-1.73,2.2-1.71,2.2-1.71,2.21-1.7,2.21-1.68,1.88-1.42.36-.26,2.23-1.66,2.25-1.66,2.25-1.65,2.26-1.63,2.27-1.63,2.27-1.61,2.28-1.61,2.28-1.6,2.29-1.58,2.3-1.58,2.3-1.56,2.31-1.56,2.31-1.54,2.33-1.53,2.32-1.52,2.34-1.51,2.34-1.5,3.53-2.24,3.58-2.22,3.58-2.2,3.61-2.17,1.82-1.1,1.82-1.07,1.84-1.07,1.83-1.06,1.84-1,1.86-1,1.84-1,1.87-1,1.86-1,1.87-1,1.88-1,1.88-1,1.89-1,1.89-1,1.9-1,1.91-1,1.91-.95,1.92-1,1.92-.92,1.94-.93,1.93-.91,1.93-.9,2-.89,1.94-.88,2-.87,2-.85,2-.84,2-.83,2-.82,2-.8,2-.78,2-.79,2-.76,2-.74,2-.74,2-.72,2-.7,2-.69,2-.67,2-.66,2-.65,2-.63,2.06-.61,2.07-.59,2-.57,2.08-.56,2.07-.55,2.08-.52,2.08-.51,2.09-.49.24,0,1.89-.29,2.13-.32,2.13-.29,1.28-.15,1.06.79,2.53,1.71,2.42,1.36,4,2.62-2.61,4-1.64,2.19-1.5,2.57-.57,1.16-1.13.37-1.89.65-1.87.67-1.67.61-.21.06-1.9.56-1.9.58-1.9.59-1.89.61-1.87.62-1.88.65-1.88.66-1.86.67-1.87.69-1.86.71-1.86.72-1.84.73-1.86.76-1.83.76-1.84.78-1.84.79-1.82.81-1.82.81-1.82.84-1.81.85-1.81.86-1.8.87-1.8.88-1.78.91-1.79.9-1.79.93-1.77.93-1.78.95-1.77,1-1.76,1-1.76,1-1.75,1-1.75,1-1.75,1-1.73,1-1.74,1-1.72,1-1.73,1.05-1.71,1.06-1.72,1.06-1.71,1.08-1.7,1.08-1.7,1.09-1.7,1.1-1.68,1.11-1.68,1.11-1.69,1.12-1.66,1.13-1.67,1.14-1.65,1.13-3.32,2.31-3.29,2.32-3.27,2.35-3.25,2.38-2.13,1.56-2.13,1.6-2.13,1.6-2.11,1.61-2.11,1.62-2.11,1.63-2.09,1.64-2.09,1.65-2.09,1.67-2.07,1.67-2.07,1.68-2.06,1.7-2.06,1.7-2,1.71-2,1.72-2,1.73-2,1.73-.32.28-1.7,1.46-2,1.76-2,1.75-2,1.77-2,1.77-2,1.79-2,1.79-2,1.8-2,1.79-1.94,1.81-1.95,1.82-1.92,1.84-1.93,1.83-1.91,1.84-1.9,1.85-1.35,1.31-1.34,1.33-1.33,1.34-1.33,1.35-1.32,1.35-1.32,1.36-1.31,1.37-1.29,1.38-1.3,1.38-1.29,1.4-1.29,1.4-1.27,1.4-1.26,1.42-1.27,1.42-1.26,1.43-1.25,1.43-1.24,1.44-1.24,1.44-1.23,1.47-1.23,1.45-1.22,1.46-1.2,1.48-1.21,1.47-1.21,1.49-1.18,1.49-1.17,1.47-2.37,3-2.33,3-1,1.3-1.34,1.72-1.34,1.78-1.34,1.78-1.32,1.79-1.31,1.81-1.28,1.81-1.27,1.82-1.27,1.83-1.25,1.85-1.23,1.85L997.23,715l-1.2,1.86-1.19,1.89-1.18,1.89-1.17,1.9-1.15,1.9-1.13,1.91-.49.84-.45.8-.43.78-.4.76-.38.74-.36.71-.33.7-.31.67-.29.63-.33.75.12-.25-.3.72Zm-1.15,5.15,0,.61,0-.59.06.59,0-.6.07.58-.07-.62.09.57-.09-.62.1.56-.1-.63.12.55-.13-.63.14.54-.16-.64.16.53-.17-.61-.06.63.06-.51,0,.64,0-.53v.14l0,.62Zm0-.41.16.5-.16-.52Zm-.06.47.06-.47v0Zm0-.52.15.42-.14-.43Zm0,.33,0-.33h0Zm.06-.37.13.34-.13-.34Zm0,0,.1.24-.1-.24Zm-.06.19,0-.17h0Zm0-.09h0v0Zm0-.14.08.14-.07-.14Zm0,.09h0v0Zm0,0h0Zm0,0h0Zm0,0h0Zm0,0h0Zm0-.09,0,.07,0-.07Zm0,.06h0Zm0,0h0Zm0,0h0Zm0,0Zm0,0Zm0,0h0Zm0,0h0Zm0,0Zm0,0h0Zm0,0Zm0,0Zm0,0Zm0,0h0Zm0,0Zm0,0h0Zm0,0Zm0,0h0Zm-.07,0Zm0,0h0v0h0Zm0,0h0Zm0,0h0l-.07,0Zm0,0h0v0h0Zm0-.07-.14-.26.17.3h0l0,0-.24-.45.28.45-.26-.42-.36-.44.34.44-.39-.44.34.41-.38-.4.36.42-.38-.4.38.41-.39-.37.39.4-.38-.35.4.4-.38-.33.43.38-.38-.3.43.37-.37-.28.45.37-.37-.27.39.31h0v0l-.06-.14.08.15Zm0,0h0v0h0Zm0,0h0l-.19-.14Zm0,0h0l0,0v0Zm0,0h0v0h0Zm0,0v0l-.29-.21Zm.07-.06-.23-.37,0,0Zm-.18-.3.15.2-.35-.5-.07-.09Zm0,0-.07-.1-.22-.29Z" transform="translate(-715.86 -461.37)"/><path class="cls-4" d="M1406,948.39l2,.05,2,0,2,.07,2,.08,2,.1,2,.1,2,.12,2,.12,2,.15,2,.15,2,.16,2,.18,2,.18,2,.19,2,.2,2,.21,3.9.45,3.91.47,3.9.5,3.9.51,3.88.55,3.87.55,3.87.57,3.86.58,7.69,1.16,7.66,1.17,3.83.57,3.82.56,3.79.56,3.81.54,3.79.51,3.79.49,3.78.47,3.77.45,3.79.41,1.86.19,1.88.19,1.88.17,1.88.17,1.87.15,1.72.14h.15l1.88.16,1.86.13,1.87.13,1.86.13,1.87.1,1.86.09,1.86.09,1.86.06,1.86.06,1.86,0,1.86,0h3.71l1.85,0,1.86,0,1.85,0,1.85-.07,1.85-.06,1.85-.11,1.85-.1,1.85-.13,1.85-.13,1.85-.17,1.84-.17,2.43-.26,2.42-.28,2.42-.3,2.41-.32,2.4-.34,2.41-.36,2.41-.4,2.39-.41,2.4-.42,2.39-.46,2.39-.47,2.39-.49,2.38-.53,2.38-.53,2.38-.55,2.38-.58,2.37-.59,2.37-.63,2.35-.64,2.37-.65,2.36-.68,2.36-.69,2.34-.71,2.35-.74,2.35-.75L1636,949l2.34-.78,2.33-.81,2.33-.82,2.33-.85,2.32-.86L1650,944l2.32-.89,2.31-.91,2.32-.93,2.3-.94,2.3-1,2.3-1,2.29-1,2.29-1,2.27-1h0l2.3-1,2.32-1,2.29-1,2.3-1,2.29-1.05,2.29-1.06,2.29-1.07,2.28-1.1,2.28-1.1,2.28-1.13,2.28-1.13,2.26-1.15,2.26-1.16,2.27-1.17,2.25-1.2,2.26-1.19,2.25-1.22,2.24-1.23,2.25-1.23,2.23-1.26,2.24-1.27,2.22-1.27,2.24-1.28,2.21-1.3,2.22-1.31,2.21-1.33,2.21-1.33,2.21-1.34,2.2-1.35,2.19-1.36,2.19-1.38,2-1.24.24-.13,2.2-1.36,2.2-1.37,2.2-1.37,2.19-1.39,2.18-1.38,2.19-1.41,2.17-1.41,2.17-1.41,2.17-1.43,2.17-1.43,2.15-1.45,2.15-1.45,2.15-1.46,2.14-1.47,2.14-1.46,2.14-1.49,2.12-1.48,2.12-1.5,2.1-1.48,4.24-3,4.19-3,4.16-3.06,4.15-3.07,4.13-3.11,4.1-3.11,4.08-3.12,4-3.15.72-.57,3.34-2.54,4-3.12,4-3.13,4-3.12,4-3.14,3.93-3.14,3.91-3.14,3.88-3.15,3.86-3.14,3.85-3.16,3.84-3.17,3.91-3.19,8-6.5,4-3.3,4-3.34,4-3.37.27-.24,1.74-1.43,2-1.67,2-1.69,2-1.7,2-1.71,2-1.72,2-1.72,2-1.74,2-1.74,2-1.77,2-1.77,1.93-1.78,1.92-1.79,1.9-1.8,1.88-1.82,1.87-1.82,1.84-1.83,1.82-1.85,1.79-1.86,1.77-1.87,1.75-1.88,1.72-1.89,1.68-1.9.4-.45,1.52-1.26,2-1.7,1-.83,1-.86,1-.86.94-.87.94-.87.91-.88.92-.89.91-.89.89-.91.88-.9.87-.92.87-.91.85-.93.85-.94.84-.94.82-1,.81-.95.81-1,.79-1,.78-1,.77-1,.76-1,.75-1,.73-1,.72-1,.54-.76.19-.25.74-1,.72-1,.72-1,.7-1,.68-1,.67-1.05.66-1,.65-1.07L1960,713l.61-1.08.61-1.09.58-1.1.57-1.11.55-1.12.54-1.13.53-1.12.51-1.16.49-1.15.48-1.15.46-1.17.45-1.17.42-1.19.41-1.19,0-.08.38-1.15,3.94-2.64,2.64,4-.09,1.24v.08l-.13,1.35-.14,1.34-.15,1.35-.16,1.34-.18,1.34-.2,1.34-.21,1.34-.22,1.34-.22,1.34-.25,1.34-.25,1.34-.27,1.34-.28,1.34-.29,1.35-.3,1.32-.33,1.35-.32,1.34-.34,1.34-.36,1.34-.35,1.34-.37,1.34-.39,1.33-.39,1.34-.1.33-.34,1-.46,1.31-.47,1.31-.48,1.32-.49,1.31-.5,1.32-.5,1.3-.53,1.31-.52,1.31-.55,1.31-.55,1.3L1962,745l-.57,1.31-.58,1.29-.59,1.31-.59,1.3-.61,1.29-.61,1.3-.63,1.29-.63,1.29-.64,1.29-.65,1.29-.65,1.28-.65,1.3-.67,1.28-.7,1.3-1.35,2.55-1.07,2-.4.54-1.76,2.28-1.77,2.26-1.8,2.24-1.82,2.21-1.85,2.2-1.86,2.19-1.88,2.16-1.9,2.16-1.91,2.12-1.92,2.11-2,2.09-1.94,2.08-2,2.06-2,2-2,2-2,2-2,2-2,2-2,2-2,1.94-2,1.93-2,1.91-1.72,1.63-.28.26-4,3.67-4,3.61-3.93,3.55-7.68,6.9-3.73,3.36-3.67,3.31-3.74,3.37-3.79,3.4-3.81,3.41-3.85,3.4-3.89,3.42-3.92,3.41-3.94,3.42-4,3.42-4,3.4-3.32,2.8-.74.61-4.11,3.35-4.14,3.34-4.18,3.34-4.21,3.32-4.25,3.31-4.27,3.29-4.3,3.28-4.31,3.25-2.19,1.63-2.18,1.62-2.19,1.61-2.2,1.61-2.21,1.6-2.21,1.59-2.23,1.59-2.22,1.59-2.24,1.57-2.24,1.57-2.25,1.56-2.25,1.55-2.27,1.56-2.27,1.53-2.28,1.53-2.29,1.53-2.29,1.51-2.3,1.5-2.31,1.5-.24.16-2.1,1.29-2.34,1.44-2.35,1.43-2.36,1.43-2.37,1.41-2.38,1.4-2.36,1.4L1745,942l-2.39,1.36-2.4,1.37-2.4,1.34-2.41,1.34-2.43,1.32-2.42,1.31-2.44,1.3-2.43,1.29-2.45,1.27-2.45,1.26-2.45,1.25-2.47,1.24-2.47,1.22-2.48,1.21-2.48,1.19-2.49,1.19-2.5,1.16-2.5,1.16-2.51,1.13-2.52,1.13-2.52,1.1-2.53,1.09-2.53,1.08-2.54,1.06h0l-2.55,1-2.58,1-2.57,1-2.59.94-2.59.91-2.59.91-2.61.88-2.6.87-2.61.85-2.62.84-2.61.8-2.63.8-2.63.78-2.64.76-2.64.74-2.65.71-2.64.69-2.65.68-2.66.65-2.67.64-2.67.61-2.67.61-2.67.57-2.68.54-2.69.54-2.7.5-2.69.48-2.69.47-2.71.44-2.7.41-2.71.4-2.72.37-2.71.35-2.73.32-2.73.29-2.72.28-2.74.25-2.74.22-2.73.2-2.74.18-2.75.15-2.17.1-2.16.08-2.17,0-2.15,0-2.14,0h-2.15l-2.13,0-2.12,0-2.13,0-2.11-.08-2.11-.09-2.1-.1-2.09-.12-2.09-.14-2.09-.14-2.06-.17-2.08-.18-2.06-.19-2.06-.21-2-.22-2-.23-2-.23-2-.26-2-.26-.16,0-1.87-.27-2-.3-2-.3-2-.31-2-.34-2-.32-3.95-.7-4-.71-3.93-.74-3.91-.76-3.9-.77-3.87-.79-3.86-.81-3.83-.8-3.84-.82-7.59-1.63-7.55-1.61-3.76-.78-3.74-.78-3.73-.76-3.72-.74-3.71-.71-3.7-.7-3.69-.67-3.69-.63-1.83-.3-1.83-.3-1.83-.29-1.83-.26-1.83-.27-1.83-.26-1.83-.24-1.82-.24-1.82-.22-1.82-.21-1.82-.21-1.82-.19-1.82-.16-1.83-.17-1.81-.15-1.82-.13-1.81-.12-1.81-.12-1.82-.08-1.81-.08-1.81-.06-1.81,0-1.81,0h-3.63l-1.81,0-1.81,0-1.81,0-1.82.08-1.81.09-1.81.11-1.82.13-1.82.14-1.81.18-1.82.18-1.82.21-1.82.24-1.82.24-1.84.28-1.83.29-1.82.31-1.83.35-1.85.36-1.83.39-1.84.4-1.84.44-1.85.45-1.85.5-1.86.5-1,.28-.89.26-1.87.55-1.86.59-1.88.61-1.88.64-1.87.66-1.89.7-2.46.94-2.45,1-2.45,1-2.45,1-2.45,1.06-2.45,1.09-2.43,1.11-2.43,1.15-2.43,1.17-2.42,1.2-2.42,1.22-2.41,1.25-2.4,1.28-2.41,1.3-2.39,1.33-2.38,1.35-2.38,1.38-2.36,1.4-2.37,1.43-2.35,1.44-2.34,1.47-2.35,1.5-2.32,1.51-2.33,1.54-2.3,1.55-2.3,1.58-2.29,1.59-2.28,1.62-2.27,1.65-2.26,1.65-2.24,1.68-2.24,1.69-2.22,1.71-2.21,1.73-2.19,1.76-2.19,1.76-2.17,1.78-2.17,1.8-2.14,1.81-2.12,1.83-2.13,1.84-2.1,1.86-2.09,1.87-2.07,1.88-2.06,1.9-2,1.91-2,1.92-2,1.94-2,1.94-2,2-2,2-1.94,2-1.93,2-1.91,2-1.9,2-1.87,2-1.86,2-1.83,2-1.82,2-1.8,2-1.79,2.06-1.76,2-1.73,2.06-1.72,2.07-1,1.25-1,1.27-1,1.29-1,1.3-1,1.33-1,1.34-.94,1.36-.92,1.36-.91,1.37-.88,1.4-.87,1.4-.85,1.4-.83,1.41-.8,1.42-.78,1.43-.78,1.43-.63,1.24-.61,1.21-.57,1.17-.52,1.15-.5,1.13-.46,1.08-.43,1.08-.41,1.07,0-.09-.38,1-.34,1,0-.09-.31,1-.28,1,0-.1-.24.94-.23.9,0-.11-.19.9-.16.86,0-.13-.14.9,0-.14-.11.89V1126l-.08.85v-.14l0,.82v-.14l0,.8v.47l0,.76,0,.58.07.54.09.52.1.5.12.46.13.45.16.44.16.4.19.39.19.38.21.36.22.34.25.33.26.32.27.31.3.31.31.3.32.28.36.28.37.26.39.27.41.25.44.24-.12-.06.58.3-.13-.06.61.28-.13,0,.62.27-.11-.06.63.26-.11,0,.65.25-.1,0,.67.23-.11,0,.69.22-.1,0,.7.19-.1,0,.73.18-.1,0,.74.16-.09,0,.71.15.72.12h-.08l.74.11.76.1h-.08l.77.09.78.08h-.07l.8.06.81,0h0l.81,0,.84,0h-.06l.85,0h1.69l.85,0,.87,0,.88,0,.9-.06.89-.06.92-.07.91-.08.93-.1.94-.1.94-.11,1-.12,1.92-.26,1.94-.31,2-.33,2-.37,2-.39,2-.43,2-.45,2-.47.86-.22,1.17-.23,2-.45,2-.45,2-.5,2-.49,2-.52,2-.53,1.93-.53,1.92-.56,1.87-.56,1.85-.57,1.79-.57,1.77-.58,1.73-.58,1.68-.57,1.63-.58,2.46,1-1.09,2.43-1.6.71-1.65.73-1.7.73-1.73.74-1.78.74-1.82.75-1.84.75-1.89.73-1.91.74-1.93.74-2,.71-2,.72-2,.7-2,.69-2,.67-1.16.37-.87.25-2.07.56-2,.53-2.07.51-2.06.49-2,.44-2,.43-2,.38-2,.36-1,.15-1,.16-1,.14-1,.14-1,.12-1,.11-1,.1-1,.09-1,.08-.95.07-1,0-1,.05-.93,0h-2.76l-.9,0-.9,0-.89-.06-.87-.07-.87-.09-.86-.1-.85-.11-.84-.13-.83-.16-.81-.17-.82-.19-.79-.21-.8-.23-.77-.25-.76-.28-.75-.29-.73-.31-.73-.35-.71-.37-.7-.39-.67-.42-.66-.45-.64-.47-.62-.5-.6-.54-.58-.56-.55-.59-.53-.61-.5-.64-.47-.67-.43-.7-.42-.72-.37-.75-.34-.77-.31-.79-.27-.81-.25-.83-.21-.85-.17-.87-.13-.89-.11-.9-.07-.93,0-.94v-1l0-1,0-1,.09-1,.13-1,.15-1,.19-1.06.21-1.08.25-1.11.29-1.13.31-1.14.34-1.17.38-1.18.41-1.22.45-1.23.47-1.26.51-1.28.54-1.3.58-1.33.61-1.36.64-1.38.77-1.58.78-1.57.82-1.57.82-1.55.85-1.55.89-1.55.89-1.54.92-1.51.93-1.52,1-1.5,1-1.49,1-1.47,1-1.45,1-1.45,1-1.41,1-1.41,1.69-2.2,1.7-2.19,1.72-2.19,1.74-2.18,1.77-2.18,1.77-2.17,1.8-2.16,1.82-2.16,1.83-2.16,1.86-2.14,1.88-2.15,1.9-2.12,1.91-2.12,1.93-2.13,1.94-2.1,2-2.1,2-2.07,2-2.08,2-2.07,2-2.05,2-2,2.06-2,2.09-2,2.1-2,2.11-2,2.14-2,2.14-2,2.16-1.95,2.18-1.93,2.19-1.93,2.21-1.9,2.22-1.89,2.24-1.87,2.24-1.87,2.26-1.83,2.28-1.82,2.29-1.81,2.31-1.79,2.31-1.76,2.34-1.76,2.33-1.72,2.36-1.71,2.37-1.69,2.38-1.67,2.4-1.64,2.4-1.63,2.42-1.6,2.43-1.59,2.44-1.55,2.44-1.53,2.47-1.52,2.47-1.49,2.49-1.46,2.5-1.43,2.51-1.42,2.51-1.38,2.53-1.35,2.53-1.33,2.55-1.31,2.56-1.29,2.57-1.25,2.57-1.22,2.59-1.19,2.59-1.16,2.07-.9,2.07-.86,2.06-.83,2.07-.81,2.07-.78,2-.74,1-.34,1.07-.37,2.07-.7,2.05-.64,2.07-.63,2-.6,2.06-.57,2.06-.55,2-.51,2.06-.51,2-.45,2-.45,2.05-.42,2-.4,2-.37,2-.34,2-.32,2-.3,2.05-.28,2-.25,2-.24,2-.21,2-.19,2-.17,2-.15,2-.14,2-.11,2-.09,2-.08,2,0,2-.05,2,0h4Z" transform="translate(-715.86 -461.37)"/><path class="cls-4" d="M1626.39,1253.06l-.35-1.19.09.28-.38-1.16-.42-1.16.11.27L1625,1249l-.46-1.13.11.25-.48-1.11-.51-1.11.12.26-.53-1.1-.56-1.08.13.23-.58-1.06-.61-1.06.14.22-.64-1-.66-1,.15.22-.68-1-.71-1,.16.2-.73-1-.76-1,.16.19-.77-1-.71-.87-.74-.86-.76-.85-.78-.84-.81-.83-.82-.82h0l-.8-.83-.84-.84-.86-.83-.87-.81-.91-.81-.92-.8-.94-.78-1-.78-1-.76-1-.75-1-.75-1-.73-1.06-.72-1.08-.71-1.1-.69-1.11-.68-1.13-.67-1.15-.66-1.18-.65-1.18-.63-1.2-.61-1.21-.6-1.23-.59-1.24-.59-1.27-.55-1.27-.55-1.3-.54-1.29-.51-1.32-.52-1.32-.48-1.34-.48-1.35-.45-1.36-.45-1.38-.43-1.38-.41-1.39-.4-1.41-.38-1.4-.37-1.42-.35-1.43-.33-1.44-.33-1.44-.3-1.46-.29-1.46-.27-1.46-.24-1.47-.25-1.48-.21-1.48-.21-1.48-.18-1.5-.17-1.5-.16-1.5-.13-1.49-.12-1.51-.1-1.51-.08-1.51-.07-1.51-.05-1.5,0h-1.6l-1.46-.46-1.55-.44-1.56-.41-1.56-.35-1.57-.33-1.59-.28-1.57-.24-1.61-.19-3.75-2.9,2.88-3.76,1.55-.6,1.57-.62,1.58-.61,1.6-.63,1.61-.62,1.62-.64,1.62-.64,1.56-.6h.09l1.67-.14,1.67-.11,1.68-.1,1.67-.08,1.68,0,1.68,0,1.67,0h3.36l1.68,0,1.68,0,1.67.07,1.68.09,1.66.11,1.68.12,1.66.15,1.67.15,1.66.19,1.66.2,1.65.22,1.65.24,1.65.26,1.64.28,1.63.29,1.63.31,1.62.34,1.62.35,1.61.37,1.61.39,1.59.41,1.59.43,1.59.45,1.57.47,1.57.49,1.55.5,1.55.53,1.54.55,1.54.57,1.51.59,1.51.6,1.5.63,1.49.64,1.47.67,1.46.7,1.46.7,1.44.74,1.43.75,1.41.77,1.39.79,1.39.82,1.37.83,1.35.86,1.34.89,1.33.9,1.31.93,1.3.95,1.27,1,1.25,1,1.23,1h0l1.2,1.07,1.16,1.1,1.15,1.12,1.12,1.15,1.1,1.16,1.09,1.18,1,1.21,1,1.23,1,1.25,1,1.27,1,1.3.93,1.33.91,1.34.87,1.36.85,1.39.81,1.41.78,1.43.76,1.45.73,1.47.69,1.49.66,1.52.63,1.53.59,1.56.56,1.58.52,1.59.5,1.62.44,1.63.43,1.64.38,1.67.33,1.65.16.89.14.85.15.86.12.86.12.86.11.87.1.87.09.89.07.88.08.88.06.88,0,.9,0,.89,0,.91v4.54l0,.92,0,.93,0,.92-.07.93-.07.93-.09.94-.09.94-.1.93-.11,1-.12,1-.13,1-.15.95-.16,1-.15,1-.18,1-.19,1-.19,1-.21,1-.22,1-.22,1-.25,1-.24,1-.27,1-.54,1.94-.59,2-.63,2-.67,2-.72,2-.77,2-.8,2-.84,2-.9,2.07-.92,2-.63,1.34-.64,1.32-.64,1.31-.65,1.31-.67,1.28-.68,1.29-.69,1.27-.7,1.26-.7,1.25-.72,1.24-.74,1.23-.73,1.23-.74,1.22-.76,1.19-.77,1.21-.77,1.19-.78,1.18-.79,1.17-.8,1.17-.8,1.15-.81,1.15-.71,1-.12.15-.82,1.11-.84,1.13-.85,1.11-.85,1.1-.86,1.1-.88,1.1-1.72,2.14-1.77,2.13-1.78,2.1-1.8,2.08-1.82,2-1.84,2-1.84,2-1.84,2-1.87,2-1.88,2-1.87,1.93-1.88,1.92-1.89,1.9-1.89,1.89-1.88,1.88-1.9,1.86-3.77,3.69-7.46,7.3-3.69,3.61-1.15,1.13-.68.66-1.82,1.78-1.81,1.78-1.8,1.77-1.78,1.78-1.75,1.77-1.73,1.78-1.72,1.79-1.69,1.77-1.68,1.8-1.64,1.79-1.61,1.8-1.59,1.81-1.56,1.82-1.53,1.82-1.52,1.86-.72.89-.73.93-.73.91-.71.93-.71.94-.69.93-.69.93-.68.94-.67,1-.66.94-.66.95-.65,1-.62,1-.07.09-.6.85-.67.94-.65.94-.65.94-.64,1-.62,1-.57.88-.35.56.25-.45-.41.7.23-.43-.37.7.2-.44-.35.72.19-.45-.32.73.17-.43-.3.72.15-.43-.28.73.14-.42-.26.74.12-.42-.23.75.11-.4-.22.75.09-.39-.21.74.09-.38-.14.59-.14.58.06-.35-.12.6-.11.61,0-.33-.1.63-.09.62,0-.29-.07.65-.07.65v-.26l-.06.67,0,.68v-.23l0,.69,0,.71v.51l0,.64v.49l0,1.51,0,.87v.55l0,1.48,0,1.54.06,1.59.15,3.35.09,1.74.07,1.8.07,1.85,0,1.87,0,1.89v2l0,1,0,1,0,1-.06,1-.09,1-.09,1-.12,1.06-.13,1.07-.16,1.07-.17,1.09-.2,1.09-.22,1.06-.36,1.55-.36,1.49-.39,1.49-.4,1.48-.42,1.47-.45,1.45-.46,1.44-.47,1.43-.5,1.43-.5,1.41-.53,1.37v0l-.55,1.38-.56,1.38-.58,1.36-.6,1.36-.6,1.34-.63,1.33-.65,1.32-.65,1.31-.68,1.29-.68,1.29-.69,1.27-.72,1.26-.72,1.27-.74,1.24-.75,1.23-.77,1.21-.77,1.22-.79,1.2-.81,1.19-.8,1.17-.83,1.18-.84,1.15-.83,1.15-.87,1.14-.87,1.13-.87,1.11-.88,1.12-.91,1.1-.9,1.08-.92,1.08-.91,1.08-.94,1.06-.94,1-.27.29-.67.76-1,1-1,1-1,1-1,1-1,1-1,1-1,1-1,1-1,1-1,1-1,1-1,.95-1,1-1,.93-1,.94-1.05.92-1.06.92-2.11,1.79-2.37,2-2.25,1.82-.12.11-2.34,2-2.35,1.94-2.37,1.91-2.39,1.87-2.39,1.85-2.42,1.82-2.42,1.8-2.44,1.77-2.45,1.75-2.46,1.73-2.48,1.7-2.48,1.67-2.51,1.66-2.5,1.62-2.52,1.6-2.54,1.59-2.53,1.57-2.56,1.53-2.56,1.52-2.58,1.5-2.58,1.48-2.6,1.45-1.73,1-.87.48-2.6,1.44-2.62,1.41-2.61,1.41-2.64,1.37-2.63,1.37-2.65,1.34-2.65,1.33-2.67,1.3-2.67,1.3-2.67,1.28-2.69,1.27-2.68,1.25-2.71,1.23-2.7,1.21-2.7,1.21-2.72,1.2-2.73,1.18-2.72,1.16-2.74,1.16-2.74,1.14-2.73,1.13-2.75,1.13-2.75,1.11-2.75,1.09-2.76,1.1-2.77,1.08-2.76,1.07-.85.33-1.92.73-2.78,1-5.54,2.09-5.57,2.06-5.56,2-5.57,2-5.58,2-5.58,2-5.59,2-5.58,1.94-5.58,1.93-11.14,3.85-8.26,2.86-2.87,1-5.55,1.9-5.53,1.92-5.53,1.92-5.51,1.94-5.48,2-5.48,2-5.45,2-2.72,1-2.7,1-2.71,1-2.7,1-2.69,1-1.09.43-1.61.56-2.73,1-2.7,1-2.71,1-2.7,1-2.69,1-2.68,1-2.67,1-2.67,1-2.66,1-2.65,1-2.65,1.07-2.64,1.09-2.62,1.09-2.62,1.12-2.6,1.13-2.6,1.14-2.59,1.16-2.58,1.17-2.57,1.18-2.56,1.21-2.55,1.22-2.55,1.24-2.52,1.26-2.53,1.28-2.5,1.29-2.5,1.31-2.48,1.33-2.49,1.36-8.71-2.16,2.29-8.67,2.44-1.55,2.47-1.55,2.48-1.54,2.49-1.52,2.5-1.5,2.53-1.49,2.52-1.46,2.54-1.45,2.55-1.44,2.54-1.42,2.57-1.41,2.57-1.38,2.59-1.39,2.6-1.36,2.6-1.35,2.6-1.33,2.63-1.33,2.62-1.31,2.64-1.31,2.64-1.28,2.64-1.29,2.66-1.26,2.66-1.25,2.67-1.25,2.67-1.23,2.68-1.23,2.69-1.22,2.69-1.2,1.6-.72,1.11-.45,2.74-1.09,2.75-1.07,2.75-1.08,2.75-1.07,2.75-1.06,5.52-2.09,5.53-2.07,5.55-2,5.55-2,5.55-2,5.56-2,5.57-2,2.86-1,8.27-2.88,11.13-3.86,5.56-1.94,5.55-1.94,5.54-1.94,5.53-2,5.52-2,5.5-2,5.48-2,5.47-2,5.46-2.06,2.7-1,1.88-.72.83-.33,2.7-1,2.7-1.06,2.7-1.07,2.68-1.08,2.68-1.09,2.67-1.1L1361,1613l2.66-1.12,2.64-1.12,2.64-1.14,2.64-1.16,2.61-1.16,2.63-1.17,2.6-1.2,2.6-1.19,2.58-1.21,2.59-1.23,2.56-1.24,2.56-1.25,2.56-1.26,2.54-1.27,2.53-1.3,2.52-1.31,2.51-1.33,2.5-1.34,2.48-1.36,2.48-1.36.83-.47,1.63-.94,2.45-1.42,2.42-1.44,2.43-1.45,2.4-1.48,2.4-1.5,2.38-1.5,2.37-1.53,2.36-1.56,2.34-1.57,2.33-1.59,2.31-1.61,2.3-1.63,2.29-1.65,2.27-1.68,2.26-1.68,2.24-1.73,2.22-1.74,2.22-1.75,2.2-1.79,2.19-1.81,2.16-1.83,2.15-1.86.11-.1,2-1.83,2.07-2,1.82-1.77.88-.88.89-.89.88-.89.87-.89.86-.91.86-.9.85-.91.83-.91.83-.92.82-.93.81-.92.79-.93.8-.94.78-.94.78-.94.76-1,.75-1,.54-.69.2-.27.72-1,.72-1,.69-1,.69-1,.67-1,.68-1,.65-1,.64-1,.64-1,.61-1,.61-1,.6-1,.58-1,.57-1,.56-1,.53-1,.54-1,.51-1,.52-1,.49-1,.48-1,.46-1,.46-1.05.43-1.06.43-1.06.41-1.06.39-1.07.39-1.08.37-1.07.36-1.08.33-1.09.33-1.09.31-1.1h0l.29-1.08.29-1.11.27-1.1.26-1.11.23-1.12.23-1.12.21-1.12.2-1.14.18-1.13.17-1.15.15-1.24,0,.25.07-.66,0-.67,0,.27,0-.68,0-.68,0,.27,0-.7v-.7l0,.24v-.71l0-.71v.21l0-.72,0-.73v.19l0-.74,0-.66-.06-.67-.06-.65-.16-1.44-.18-1.45-.19-1.51-.22-1.54-.24-1.6-.48-3.33-.24-1.73-.24-1.77-.22-1.83-.08-.72-.1-1.14-.15-1.88,0-1,0-1,0-1,0-1v-2.07l0-1.05,0-1.07.07-1.07.08-1.1.11-1.09.13-1.12.16-1.13.2-1.13h0l.21-1.15.25-1.15.28-1.16.31-1.17.35-1.18.38-1.17.42-1.18.47-1.19.5-1.17.54-1.17.58-1.18.59-1.08.74-1.35.71-1.26.73-1.26.73-1.24.75-1.22.74-1.23.7-1.1.06-.11.82-1.18.83-1.17.82-1.16.84-1.14.84-1.14.85-1.14.86-1.11.86-1.11.87-1.11.88-1.09.88-1.1.89-1.07.91-1.09,1.78-2.1,1.83-2.09,1.83-2.07,1.86-2,1.88-2,1.88-2,1.89-2,1.91-1.94,1.92-1.92,1.93-1.9,1.92-1.88,1.94-1.87,1.93-1.85,2-1.83,1.93-1.82.73-.67,1.24-1.13,3.9-3.54,7.76-7,3.83-3.47,1.9-1.72,1.88-1.73,1.88-1.72,1.85-1.74,1.83-1.73,1.82-1.73,1.8-1.73,1.79-1.73,1.75-1.76,1.75-1.74,1.71-1.76,1.69-1.77,1.67-1.78,1.64-1.77,1.61-1.8,1.6-1.83.76-.89.78-.91.76-.92.76-.91.75-.93.75-.92.09-.12.64-.8.74-.93.73-.94.71-.94.71-.94.7-1,.69-.95.68-1,.67-1,.67-1,.66-1,.65-1,.64-1,.64-1,.61-1,.61-1,.61-1,.59-1,.58-1,.57-1,.57-1,.54-1,.85-1.65.8-1.6.76-1.6.71-1.58.68-1.56.64-1.54.61-1.52.55-1.51.53-1.49.5-1.49.23-.7.22-.72.21-.72.2-.71.2-.72.19-.7.18-.71.17-.69.17-.69.14-.69.16-.69.13-.68.14-.67.11-.67.12-.67.1-.66.1-.66.09-.64.09-.65.07-.65.07-.64.06-.63.06-.64,0-.63,0-.62,0-.62,0-.61,0-.62v-2.41l0-.67v.16l0-.67,0-.66,0,.15-.05-.65,0-.66,0,.15,0-.65-.07-.64,0,.14-.08-.63-.08-.64,0,.14-.08-.6-.2-1.3,0,.29-.22-1.24-.25-1.22.07.28-.28-1.22-.3-1.21.08.29Z" transform="translate(-715.86 -461.37)"/><path class="cls-5" d="M959.76,1293.7l-.33-.32.21.18-.26-.25-.09-.08-.34-.32.22.18-.36-.33-.35-.31.22.17-.36-.32-.37-.3.23.16-.38-.3-.38-.3.23.16-.39-.3-.4-.29.23.15-.4-.28-.41-.29.23.14-.41-.28-.43-.28.24.14-.44-.27-.43-.27.23.12-.45-.25-.45-.26.23.11-.47-.26-.47-.24.24.11-.49-.25-.5-.24.25.1-.51-.24-.51-.23.24.09-.53-.22-.52-.23.22.08-.54-.21-.54-.21.22.06-.56-.2-.57-.2.23.07-.59-.2-.59-.19.23,0-.61-.18-.6-.19.21.06-.62-.18-.63-.17.21,0-.2,0-.44-.1-.66-.13.2,0-.67-.12-.57-.11-.6-.1-.6-.1-.61-.09-.63-.08-.64-.08-.65-.08-.66-.06-.69-.07-.69-.06-.7,0-.71,0-.92,0-.92,0-.93,0-.92,0h-2.82l-.95,0-1,0-1,0-1,0-1,0-1,.06-1,.06-2,.17-2,.19-2,.21-2,.25-2,.27-2,.28-2,.31-2.06.32-2,.34-1.28.22-1.22.23-1.24.25-1.23.26-1.23.29-1.23.29-1.24.33-1.23.32-1.23.35-1.24.36-1.24.38-1.23.4-1.25.4-1.24.42-.15,0-1.1.38-1.25.43-1.25.45-1.27.46-1.26.48-1.26.48-1.27.5-1.26.5-2.59,1.06-2.58,1.09-2.6,1.13-2.62,1.15-2.67,1.19-5.1,2.3-5.13,2.31-.94.41-4.27,1.73-5.22,2.1-5.23,2.09-5.24,2.08-5.24,2.07-2.72,1-2.72.58-5.61,1.23-3,.65-2.69.42-5.72.9-2.86.48-2.85.51-1.3.22-1.55.25-2.86.45-2.83.48-2.84.51-2.82.52-2.81.54-2.81.57-2,.4-.79.17-4.35-1.9,1.89-4.35.69-.42,1.74-1.06,2.39-1.5,2.38-1.55,2.34-1.58,2.34-1.62,2.31-1.64,2.29-1.7,1.23-.93,1.06-.76,2.28-1.68,2.27-1.71,4.48-3.52,2.08-1.69,2.43-1.73,4.56-3.32,2.19-1.63,2.51-1.31,4.9-2.57,4.87-2.59,4.88-2.61,4.87-2.64,4-2.18.89-.46,5-2.5,5-2.52,2.69-1.37,2.74-1.36,2.77-1.35,2.79-1.34,2.82-1.31,1.45-.66,1.44-.65,1.44-.63,1.47-.63,1.47-.62,1.48-.62,1.49-.59,1.32-.53.19-.06,1.52-.57,1.53-.55,1.54-.55,1.56-.52,1.57-.52,1.58-.49,1.59-.48,1.61-.47,1.62-.44,1.64-.43,1.66-.41,1.66-.39,1.68-.37,1.65-.34,2.3-.44,2.28-.44,2.32-.41,2.32-.41,2.36-.38,2.36-.35,2.4-.34,2.42-.3,2.4-.28,1.25-.12,1.23-.13,1.24-.1,1.24-.1,1.25-.09,1.26-.06,1.25-.07,1.26-.06,1.27,0,1.27,0h1.28l1.27,0,1.29,0,1.28,0,1.08,0,1.06,0,1.05.06,1,.07,1,.06,1,.08,1,.1,1,.1,1,.13,1,.12,1,.13,1,.15,1,.17,1,.16.68.13.29,0,1,.18.94.18,1,.19,1,.21.93.21.94.24.93.23.93.26.9.26.92.28.9.28.9.3.88.31.88.32.87.34.87.35.86.34.85.37.85.39.84.39.83.4.81.42.82.42.8.44.8.45.79.45.77.47.77.48.76.49.75.51.74.51.73.53.72.52.71.55.71.55.17.13.52.42.67.59.67.58.66.59.65.59.64.62.62.61.62.61.6.64.6.64.58.63.62.71,1.07,1.26,1.08,1.34,1,1.36,1,1.39,1,1.4.91,1.42.87,1.43.84,1.45.81,1.45.77,1.47.73,1.49.71,1.49.67,1.49.42,1,.18.52.48,1.56.46,1.56.43,1.57.39,1.57.38,1.56.34,1.57.32,1.57.3,1.58.27,1.56.25,1.58.24,1.57.21,1.57.19,1.57.18,1.58.15,1.56.15,1.58.13,1.57.12,1.57.1,1.57.09,1.57.06,1.57.07,1.57.06,1.56,0,1.34v1.81l0,3.11-.06,3.11-.09,3.11-.11,3.08L1008,1347l-.14,3.06-.14,3-.31,6-.2,4.2-.29,1.74-.48,2.93-.44,2.9-.43,2.87-.38,2.84-.35,2.79-.3,2.79-.13,1.35-.12,1.36-.1,1.34-.11,1.34-.08,1.33-.07,1.31-.06,1.31,0,1.28,0,1.28v.22l0,1v2.49l0,1.23,0,1.21.06,1.2.08,1.19.1,1.17.11,1.15.14,1.14.15,1.13.18,1.1.21,1.16,0-.12.23,1.13.26,1.12,0-.1.14.51.13.52,0-.09.14.51.16.5-.05-.07.17.5.16.5,0-.08.18.51.18.49,0-.07.19.48.2.49-.07-.1.43,1,.45,1-.07-.11.48.94.51.93-.08-.1.54.92.57.9-.07-.08.28.42.34.45.64.86-.06-.08.68.84.69.83-.06-.07.73.82.74.79-.06-.06.77.8.8.77-.07-.06.82.76.83.75-.05,0,.85.72.87.72,0,0,.89.71.9.68,0,0,.92.67.92.64.94.63.94.63,1,.6,1,.59,1,.58,1,.56,1,.56,1,.54,1,.52,1,.51,1,.5,1,.49,1.07.47,1.06.45,1.09.44,1.07.44,1.08.41,1.09.41,1.09.39,1.09.37,1.08.37,1.1.35,1.08.34,1.08.33,1.09.31,1.08.3,1.07.28,1.07.28,1.07.27,1.06.24,1,.24,1,.23,1,.22,1,.2,1,.19,2,.34.73.89-.94.64-2-.21-1-.12-1-.12-1.07-.15-1.08-.14-1.08-.16-1.09-.17-1.1-.18-1.11-.19-1.12-.19-1.12-.21-1.13-.22-1.14-.23-1.14-.24-1.14-.25-1.15-.27-1.15-.26-1.15-.29-1.17-.31-1.15-.31-1.16-.32-1.15-.34-1.16-.34-1.15-.36-1.16-.38L1030,1443l-1.14-.4-1.15-.42-1.14-.43-1.13-.45-1.14-.46-1.12-.48-1.12-.5-1.1-.5-1.11-.53-1.09-.55-1.09-.56-1.07-.58-1.07-.6-1.05-.61-1-.63-1-.66-1-.67-1-.69-1-.72-1-.73-1-.76-1-.79-.93-.79-.9-.83-.89-.85-.46-.45-.43-.41-.88-.88-.86-.89-.85-.93-.81-1-.81-1-.77-1-.38-.53-.38-.52-.37-.53-.36-.54-.35-.55-.35-.54-.33-.56-.34-.57-.32-.58-.33-.58-.62-1.17-.61-1.18-.59-1.2-.57-1.21-.56-1.24-.54-1.26-.53-1.26-.52-1.28-.51-1.3-.49-1.32-.49-1.32-.47-1.34-.46-1.35-.46-1.36-.35-1.13-.08-.24-.43-1.39-.42-1.4-.4-1.4-.41-1.42-.39-1.43-.39-1.43-.38-1.44-.38-1.46-.38-1.47-.72-2.92-.73-3-.7-3-.72-3-.7-3-.71-3-.41-1.74-.49-4.24-.69-6-.36-2.95-.36-2.93-.38-2.89-.39-2.86-.41-2.83-.44-2.78-.46-2.76-.24-1.32,0-.2-.17-1.14-.23-1.32-.22-1.31-.24-1.28-.24-1.28-.25-1.26-.25-1.23-.27-1.23-.28-1.19-.28-1.19-.29-1.16-.3-1.14-.32-1.11-.32-1.1-.32-1.07-.35-1-.35-1-.34-1-.37-1-.37-1-.38-.91-.39-.9-.4-.86-.46-1,.12.33-.16-.32-.23-.68-.37-1,.15.36-.38-1-.41-1,.18.36-.41-.93-.42-.93.2.38-.44-.9-.47-.89.24.4-.47-.86-.49-.85.26.42-.5-.83-.54-.8.31.41-.54-.78-.56-.77.25.3-.37-.47.17.2-.29-.37-.29-.37.17.2-.3-.35-.31-.36.19.2-.31-.36-.32-.34.2.2-.32-.35-.32-.33.2.19Z" transform="translate(-715.86 -461.37)"/><path class="cls-5" d="M1857.29,602.72l.35,2.65.63,2.9.92,3.11.66,1.92-.44.71-1.06,1.67-1.06,1.67-1.07,1.65-1.08,1.64-1.08,1.62-1.08,1.6-1.1,1.6-1.1,1.57-1.11,1.57-1.11,1.54-.21.29-.94,1.21-1.17,1.47-1.17,1.47-1.19,1.45-1.18,1.43-1.19,1.42-1.19,1.39-1.21,1.39-1.2,1.37-1.22,1.36-1.22,1.35-1.22,1.32-1.23,1.31-1.23,1.3-1.24,1.28-1.25,1.28-1.25,1.25-.68.68-.58.56-1.27,1.21-1.29,1.18-1.28,1.18-1.3,1.17-1.3,1.15-1.3,1.13-1.31,1.11-1.32,1.11-1.32,1.09-1.32,1.09-1.32,1.06-1.33,1-1.33,1-1.34,1-1.36,1-1.34,1-1.36,1-1.35,1-1.36,1-1.37.95-.34.22-1,.69-1.39.89-1.39.88-1.4.87-1.4.85-1.41.85-1.4.83-1.41.81-1.42.81-1.41.79-1.43.77-1.42.77L1782,687l-1.43.74-1.43.74-1.44.71-1.44.71-1.44.69-1.44.68-.44.2-1,.45-1.47.62-1.46.62-1.47.59-1.47.59-1.47.58-1.48.57-1.47.56-1.49.55-1.47.52-1.49.53-1.49.51-1.48.51-1.49.49-1.5.48-1.49.47-1.49.46-1.5.44-1.49.44-1.5.43-1.51.42-1.49.41-1.51.4-1.51.39-1.5.38-1.51.37-1.52.37-1.5.35-1.54.34-3,.66-3,.63-2.56.5-.48.09-3,.54-3,.49-3.06.47-3.06.43-3.06.42-3.06.38-3.07.35-3.06.33-3.08.3-3.08.27-3.07.25-3.09.23-3.08.21-3.09.18-3.09.17-3.09.14-3.1.12-3.09.11-3.1.08-3.1.08-.94,0h-11.49l-3.1,0-3.11,0-3.12,0-3.11,0-3.12-.07-6.22-.15-6.25-.19-6.24-.21-6.25-.22-6.25-.22-12.53-.46-6.27-.21-6.26-.2-6.27-.18-6.29-.15-3.13,0-3.13-.06-3.14,0h-.31l-2.83-.22-3.14-.21-3.15-.2-3.14-.18-3.15-.17-3.14-.15-3.15-.14-3.15-.12-3.16-.1-3.15-.08-3.16-.07-3.15,0h-.27l-2.9-.07-3.17,0-3.17,0h-3.16l-3.18,0-3.18.07-3.17.08-3.18.12-3.23.15L1476.63,701l8.12-10.13,3.23-.66,3.26-.64,3.28-.61,3.27-.59,3.26-.57,3.28-.55,3.27-.54,3.26-.51,3-.45.28,0,3.26-.43,3.27-.41,3.26-.39,3.27-.38,3.26-.37,3.25-.35L1537,683l3.25-.33,3.25-.31,3.24-.29,3.24-.29,2.92-.26h.32l3.23-.08,3.22-.05,3.23-.06,6.41-.09,6.38,0,6.37,0,6.33,0,12.56,0h12.44l6.16,0,6.12,0,6.1-.08,3-.06,3,0,3-.08,3-.08,3-.09,3-.1,3-.12,3-.12,2-.1.89,0,2.93-.12,2.93-.15,2.9-.15,2.9-.17,2.88-.19,2.87-.21,2.86-.23,2.84-.24,2.83-.27,2.82-.29,2.81-.3,2.8-.33,2.78-.35,2.76-.37,2.76-.4,2.74-.42,2.72-.44,2.72-.47,2.7-.51,2.68-.52.43-.08,2.25-.45,2.66-.54,2.68-.59,1.3-.3,1.32-.3,1.32-.31,1.3-.33,1.31-.33,1.31-.34,1.29-.34,1.3-.35,1.3-.37,1.29-.37,1.29-.38,1.28-.38,1.29-.39,1.27-.4,1.27-.41,1.28-.42,1.27-.43,1.26-.44,1.27-.44,1.25-.45,1.26-.46,1.25-.48,1.25-.48,1.24-.48,1.25-.5,1.24-.52,1.23-.51,1.24-.53.86-.38.37-.14,1.25-.51,1.24-.53,1.23-.54,1.24-.54,1.23-.56,1.23-.56,1.23-.58,1.23-.58,1.22-.61,1.22-.6,1.22-.62,1.22-.63,1.21-.65,1.21-.65,1.21-.66,1.21-.68,1.2-.68,1.21-.7.91-.54.3-.17,1.2-.7,1.22-.7,1.21-.73,1.22-.74,1.2-.75,1.21-.76,1.19-.77,1.21-.79,1.21-.8,1.19-.81,1.2-.83,1.19-.84,1.2-.85,1.19-.88,1.2-.88,1.18-.89,1.2-.91,1.18-.92,1.19-.94,1.18-1,.55-.45.65-.51,1.2-1,1.2-1,1.2-1,1.2-1,1.2-1,1.19-1,1.2-1.05,1.18-1.07,1.2-1.09,1.18-1.09,1.2-1.13,1.18-1.13,1.19-1.15,1.18-1.17,1.18-1.19,1.19-1.19,1-1,.23-.23,1.23-1.2,1.23-1.2,1.22-1.24,1.23-1.24,1.22-1.28,1.21-1.28,1.22-1.31,1.22-1.33,1.22-1.34,1.21-1.36.51-.57,2,.12h3.19l2.88-.26,2.6-.52,4.67-.82Z" transform="translate(-715.86 -461.37)"/><path class="cls-5" d="M2023,979.93v.22l0,2.89.12,1.92-.06,1.33,0,3.23.08,1.86-.7.78-1.58,1.74-1.58,1.72-1.6,1.72-1.61,1.71-1.61,1.7-.38.4-1.28,1.27-1.68,1.65-1.67,1.65-1.69,1.64-1.71,1.63-1.7,1.62-1.72,1.61-1.72,1.61-.9.83-.84.75-1.77,1.58-1.77,1.55-1.78,1.55-1.78,1.55-1.8,1.54-1.79,1.53-1.81,1.52-1.81,1.51-1.83,1.49-1.83,1.5-1.84,1.49-1.84,1.47-1.86,1.48-1.85,1.45-1.87,1.45-1.86,1.44-1.89,1.43-1.89,1.43-1.89,1.41-1.42,1-.48.36-1.92,1.37-1.92,1.36-1.93,1.37-2,1.35-1.94,1.34-1.95,1.33-2,1.32-2,1.3-2,1.3-2,1.29-2,1.28-2,1.26-2,1.26-2,1.24-2,1.24-2,1.23-2,1.21-2,1.21-2,1.19-2,1.18-2,1.17-2,1.16-2.05,1.15-2.06,1.13-2,1.13-1.39.75-.66.34-14.22-4,4-14.21.63-.37,1.32-.77,1.92-1.14,1.92-1.14,1.91-1.16,1.9-1.16,1.9-1.17,1.9-1.2,1.89-1.19,1.89-1.21,1.87-1.23,1.88-1.23,1.87-1.24,1.85-1.25,1.85-1.25,1.86-1.27,1.84-1.29,1.84-1.28,1.83-1.31,1.83-1.31L1938,1035l1.81-1.33,1.81-1.34,1.8-1.34,1.79-1.36,1.78-1.36,1.79-1.38.45-.34,1.33-1,1.79-1.38,1.77-1.38,1.77-1.4,1.75-1.41,1.76-1.4,1.75-1.42,1.74-1.43,1.73-1.43,1.72-1.46,1.73-1.45,1.72-1.45,1.69-1.47,1.7-1.48,1.7-1.49,1.68-1.49,1.67-1.5,1.68-1.51,1.66-1.51,1.66-1.53.78-.72.87-.8,1.66-1.5,1.66-1.52,1.64-1.53,1.64-1.53,1.63-1.55,1.62-1.55,1.61-1.55,1.24-1.2.38-.36,1.64-1.51,1.64-1.55,1.63-1.54,1.62-1.54,1.6-1.55.72-.71,1.84.06,3.18-.09,1.29-.1,1.91,0,2.85-.21.23,0,4.74-.16Z" transform="translate(-715.86 -461.37)"/><path class="cls-4" d="M1804.8,1534.64l2.63,1.33,1.24.55-.12.09,1.19.45,1.13.41-.12.09,1,.31.61-.88,1.2.19,1.12.16,1,.16.94.16.16,0,.67-.25.78-.25.72-.21.38-.07.37-.06.35,0,.36,0h.37l.38,0,.39.06.4.09.43.14.42.21.44.26.43.35.39.44.36.5.28.55.2.58.12.58.06.56v.52l0,.49-.08.46-.09.43-.1.38v0l-.08.46-.08.76-.13.81-.14.84-.13.87-.12.93-.14,1-.12,1-.12,1.11-.1,1.18-.1,1.25-.09,1.34-.07,1.41-.08,1.52v3.54l-1.32,1.2-1.48,1.33-1.5,1.3-1.51,1.3-1.49,1.27-1.47,1.24-1.44,1.2-1.39,1.15-1.35,1.11-2.4,2-2,1.61-1.49,1.17-1.19.93-1.22.92-1.22.91-1.24.91-1.23.88-1.25.88-1.25.87-1.25.86-1.25.86-1.27.84-1.27.84-1.27.83-1,.61,19.66,11.37-15.82,20.57-9.25,4.28-9.16,4.46-9.09,4.62,0,0-9.49,2.56-4.73,1.31-4.72,1.31-4.73,1.32-4.71,1.33-4.72,1.34-4.7,1.34-4.69,1.36-.33.09-4.42,1.06-4.74,1.14-4.74,1.15-4.72,1.16-4.73,1.18-4.71,1.18-4.72,1.19-4.71,1.19-4.71,1.22-4.7,1.22-4.69,1.23-4.69,1.24-4.7,1.24-4.68,1.26-4.68,1.27-1.32.36-3.36.89-4.68,1.27-4.68,1.26-4.67,1.28-4.67,1.3-4.66,1.29-4.67,1.32-4.66,1.33-4.65,1.34-4.64,1.35-4.65,1.37-4.65,1.37-4.64,1.39-4.64,1.41-4.63,1.41-4.64,1.42-4.46,1.4-.16,0-4.68,1.29-4.68,1.29-4.68,1.31-4.67,1.32-4.67,1.34-4.67,1.35-4.67,1.38-4.67,1.38-4.66,1.4-4.67,1.42-4.66,1.43-4.67,1.44-4.66,1.46-4.66,1.49-4.66,1.5-4.66,1.5-4.61,1.52-2.15.72-2.13.74-2.18.76-2.2.79-2.23.83-1.18.43-1.08.39-4.65,1.76-4.76,1.79-4.85,1.83-2.5.92-2.51.93-2.54.92-2.58.9-2.61.91-2.64.88-2.67.86-2.7.85-2.71.8-1.42.42-1.38.39-1.41.38-1.41.37-1.4.36-1.43.35-1.45.35-1.44.33-1.45.31-1.46.32-1.47.29-1.48.28-1.49.27-.3,0-1.2.21-1.5.26-1.51.23-1.52.22-1.54.2-1.54.19-1.55.15-1.56.15-1.46.12-3,.21-1.85.13-2,.11-1.16,0-1.16,0-1.21,0h-2.55l-1.33,0-1.38,0-1.42-.07-1.47-.12-1.5-.14-1.56-.19-1.61-.23-1.65-.31-1.6-.34-1-.25-.9-.23-.91-.26-.93-.29-.94-.32-1-.35-1-.38-1-.43-1-.45-1-.51-1-.55-1-.61-1.06-.66-1.05-.7-1.07-.78-1-.84-1-.91-1-1-1-1-1.45-1.59-2-2.67-1.78-3.45-1.17-3.45-.62-3.27-.21-2.94.09-2.58.28-2.24.39-2,.46-1.69.49-1.49.51-1.33.5-1.18.51-1.08.49-1,.5-.92.49-.85.48-.8.52-.85.88-1.34.92-1.33.92-1.26.91-1.22.91-1.16.92-1.13.9-1.09.89-1.07.9-1,.88-1,.86-1,.85-.94.86-.93,1.54-1.65,1.44-1.5,1.29-1.3,1.13-1.11.93-.87,2.24-2.09,2.18-2,2.19-2,2.2-2,2.22-1.94,2.23-1.94,2.24-1.92.31-.26,2-1.66,2.25-1.89,2.28-1.88,2.28-1.87,2.3-1.84,2.31-1.83,2.32-1.83,2.32-1.81,2.34-1.78,2.33-1.77,2.36-1.76,2.36-1.75,2.37-1.73,2.36-1.71,2.38-1.7,2.38-1.68,2.09-1.47.32-.2,2.48-1.52,2.48-1.49,2.48-1.5,2.48-1.48,2.49-1.46,2.48-1.44,2.49-1.44,2.51-1.43,2-1.11,2-1.1,2-1.08,2-1.06,2-1,2-1,2-1,2-1,2-1,2-1,2-.92,2-.92,2-.9,2-.88,2-.87,2-.85,2-.82,2-.82,2-.79,2-.78,2-.77,2-.75,2-.74,2-.72,2-.71,2-.69,2-.67,2-.67,2-.65,2-.64,2-.62,2-.61,2-.6,2-.58,2-.57,2-.57,2-.55,2-.54,2-.52,2-.51,2-.51,2-.5,2-.48h0l2-.45,2-.44,2.06-.45,4-.84,4-.82,4-.78,4-.75,4-.71,4-.69,4-.66,4-.64,4-.63,4-.59,4-.58,4-.56,4-.54,3.94-.54,3.89-.51.07,0,7.82-.92,7.81-.9,7.75-.89,7.71-.88,7.68-.91,3.79-.46,2.09-.25,1.72-.1,3.81-.23,3.81-.23,3.79-.26,3.79-.26,3.76-.27,3.76-.31,3.75-.32,3.73-.35,3.73-.35,3.72-.4,3.7-.41,3.7-.45,3.71-.46,1.81-.25,1.85-.26,3.95-.57,1.2-.15,5.17-.67,2.53-.34,2.54-.35,2.52-.35,2.51-.36,2.49-.37,2.48-.39,2.45-.39,2.45-.41,2.44-.43,2.41-.43,2.39-.46,2.38-.47,2.36-.5,2.34-.52,2.33-.52,2.3-.56,2.29-.58,2.3-.62.74-.2.37,0,1.17-.17,1.17-.17,1.18-.19,1.17-.19,1.16-.2,1.16-.21,1.16-.23,1.16-.23,1.15-.24,1.15-.24,1.14-.26,1.14-.27,1.14-.28,1.14-.29,1.12-.3,1.13-.31,1.13-.33,1.12-.33,1.14-.35,1.56-.52,2.19-.75,2.65-.94,1.43-.51,1.5-.56,1.53-.58,1.55-.59,1.55-.62,1.53-.61,1.49-.62,1.42-.61,1.19-.53Zm14,8.18.29.2-.09-.12.26.14-.12-.12.25.11-.13-.12.21.07-.16-.12.19.06-.17-.13.16,0-.19-.11.13,0-.21-.11h.13l-.24-.11h.1l-.24-.11h.07l-.26-.12.11,0-.62-.22h.11l-.44-.13.17.33,0-.12.28.39,0-.12.3.33-.06-.12.31.27Zm-.92-.83v0h0Z" transform="translate(-715.86 -461.37)"/><path class="cls-6" d="M1914.77,718.07l2.76.07,2.37-.24,3.65,2.74L1924,723l.8,2.68.78,2-.3.42-1,1.37-1.94,2.72-2,2.73-2,2.7-2,2.69-2.07,2.68-2.1,2.67-2.13,2.66L1907.9,751l-2.19,2.64-2.22,2.61-2.25,2.61-2.27,2.6-2.31,2.58-2.32,2.58-2.36,2.54-2.39,2.55-2.42,2.54-2.43,2.51-2.47,2.52-2.49,2.49-2.51,2.48-1.23,1.19-1.33,1.25-2.6,2.43-2.62,2.4-2.64,2.39-2.67,2.37-2.69,2.36-2.71,2.34L1856,803.3l-2.76,2.31-2.78,2.3-2.8,2.28-2.82,2.28-2.85,2.25-2.86,2.24-2.88,2.22-.71.53-2.23,1.64-2.95,2.16-3,2.12-3,2.12-3,2.09-3,2.09-3,2.06-3.07,2-3.08,2-3.1,2-3.11,2-1.57,1-1.59.94-3.19,1.88-3.21,1.84-3.23,1.83-3.24,1.82-3.25,1.79-3.26,1.78-3.29,1.76-3.28,1.73-3.31,1.72-3.31,1.71-3.32,1.68-3.33,1.66-3.36,1.65-3.35,1.62-3.37,1.61-3.38,1.58-.3.14-3.09,1.39-3.42,1.51-3.42,1.49-3.42,1.47-3.44,1.44-3.44,1.43-3.45,1.41-3.45,1.4-3.47,1.36-3.46,1.35-3.48,1.32-3.47,1.31-3.49,1.29-3.48,1.27-3.49,1.24-3.49,1.22-3.5,1.2-3.5,1.18-3.51,1.17-3.5,1.14-.79.25-2.72.85-3.52,1.06-3.52,1.05-3.52,1-3.53,1-3.52,1-3.52,1-3.52.94-3.52.92-3.52.9-3.52.87-3.5.85-3.51.84-3.52.8-3.5.8-3.51.76-3.49.75-3.5.71-3.5.7-3.48.67-3.49.66-3.47.63-3.48.61-3.46.58-3.45.56-3.46.54-3.45.52-3.44.5-3.43.47-3.42.43-3.42.43-3.4.4-3.4.38-3.38.34-3.38.33-3.37.3-3.37.28-3.34.26-3.34.23-3.33.2-3.3.19-2.72.12-.59,0-1.53,0-1.53.05-1.53,0-1.55,0-3,0-3,0-3,0-3-.07-3-.11-3-.13-3-.16-3-.19-3-.21-3-.24-2.95-.25-3-.28-2.94-.31-2.93-.32-2.91-.33-2.92-.36-2.9-.37-2.91-.38-2.89-.4-2.88-.4-2.89-.43-2.87-.43-2.87-.44L1456,919l-5.7-.91-5.68-.93-5.67-.94-11.29-1.87-5.62-.91-5.62-.9-2.79-.43-2.8-.43-2.8-.41-2.79-.4-2.8-.38-2.78-.38-2.79-.36-2.8-.34-2.78-.34-2.79-.31-2.78-.29-2.78-.27-2.8-.26-2.78-.23-2.78-.2-2.79-.19-2.79-.16-2.79-.15-2.79-.1-2.78-.09-2.8,0-2.8,0h-2.79l-2.81,0-1,0H1348l-1.4,0-1.4.05-1.39.06-1.4.08-1.41.08-1.41.1-1.4.11-1.41.11-1.42.13-1.42.15-1.42.16-1.42.15-1.41.18-1.43.19-1.42.2-1.43.21L1324,909l-1.43.23-1.43.25-1.44.25-1.43.27-1.44.27-1.44.29-1.44.29-1.43.31-1.44.32-1.44.33-1.44.34-1.44.34-1.44.37-1.44.37-1.43.38L1301,914l-1.44.4-1.44.42-1.44.41-1.44.42-1.44.45-1.44.45-1.43.46-1.44.45-1.43.48-1.45.48-1.43.5-1.43.5-1.44.51-1.43.53-1.43.52-1.42.54-1.43.55-1.41.56-1.43.55-1.42.57-1.42.59-1.41.59-1.42.6-1.41.59-2.81,1.24-2.82,1.27-2.79,1.29-2.78,1.33-2.77,1.35-2.76,1.39-2.74,1.42-2.73,1.44-2.71,1.46-2.7,1.5-2.67,1.52-2.67,1.54-2.64,1.56-2.63,1.6-2.61,1.61-2.58,1.64-2.57,1.66-2.54,1.67-2.52,1.71-2.49,1.71-2.48,1.74-2.45,1.76-2.41,1.77-2.41,1.79-2.2,1.69-.16.12-2.38,1.78-2.35,1.8-2.32,1.81-2.29,1.83-2.26,1.84-2.22,1.86-2.21,1.86-2.16,1.89-2.13,1.89-2.1,1.91-1,.89-1,.91-1,.9-1,.92-.94.91-.92.93-.93.93-.91.94-.9.94-.91,1-.88.95-.88.94-.87,1-.88,1-.86,1-.84,1-.84,1-.84,1-.83,1-.81,1-.82,1-.8,1-.81,1-.78,1-.78,1-.65.86-.13.16-.77,1-.76,1-.76,1-.75,1-.75,1.05-.74,1.06-.72,1.06-.73,1.06-1.42,2.16-1.41,2.17-1.37,2.2-1.34,2.21-1.32,2.24-1.31,2.25-1.26,2.28-1.25,2.3-1.23,2.32-1.2,2.34-1.18,2.37-1.15,2.38-1.14,2.4-1.11,2.44-1.09,2.44-2.44,1.07-1-2.48,1-2.53,1-2.51,1-2.49,1-2.48,1.07-2.47,1.1-2.45,1.11-2.42,1.15-2.42,1.18-2.4,1.19-2.38,1.22-2.36,1.25-2.34,1.28-2.34,1.3-2.31,1.33-2.29.67-1.14.69-1.14.69-1.13.7-1.14.7-1.12.72-1.12.73-1.12.72-1.11.12-.19.62-.91.75-1.11.76-1.09.76-1.1.77-1.09.78-1.09L1156,997l.79-1.07.81-1.08.81-1.07.82-1.07.84-1.06.84-1,.83-1.06.86-1,.86-1.05.88-1,.88-1,.89-1,.9-1,.9-1,.92-1,.92-1,.94-1,.94-1,1-1,2-2.11,2.07-2.09,2.1-2.09,2.12-2.09,2.17-2.06,2.19-2.07,2.22-2,2.26-2,2.29-2,2.31-2,.17-.15,2.21-1.82,2.42-1.94,2.42-1.94,2.47-1.92,2.48-1.9L1209,945l2.55-1.87,2.56-1.84,2.59-1.82,2.61-1.81,2.63-1.78,2.66-1.76,2.67-1.74,2.7-1.72,2.72-1.69,2.74-1.67,2.76-1.64,2.77-1.62,2.79-1.59,2.82-1.56,2.82-1.54,2.85-1.51,2.86-1.49,2.88-1.44,2.89-1.42,1.45-.7,1.45-.7,1.46-.68,1.47-.67,1.46-.67,1.46-.66,1.48-.64,1.47-.64,1.48-.64,1.47-.62,1.49-.62,1.49-.6,1.48-.6,1.5-.6,1.48-.58,1.5-.57,1.5-.56,1.51-.55,1.49-.54,1.51-.54,1.51-.52,1.51-.52,1.51-.5,1.52-.5,1.5-.48,1.52-.48,1.52-.46,1.52-.46,1.52-.45,1.53-.43,1.52-.43,1.53-.41,1.53-.4,1.53-.39,1.53-.38,1.54-.37,1.53-.36,1.53-.36,1.54-.33,1.53-.33,1.54-.31,1.53-.3,1.54-.29,1.54-.28,1.54-.27,1.54-.25,1.54-.25,1.54-.22,1.54-.23,1.54-.21,1.55-.19,1.54-.18,1.54-.17,1.54-.15,1.54-.15,1.54-.13,1.55-.11.42,0,1.12-.06,3-.16,3-.13,3-.09,3-.06,3,0h3l3,0,3,0,3,.08,3,.11,2.94.13,2.93.14,2.93.17,2.93.19,2.93.2,2.91.22,2.91.25,2.9.25,2.91.26,2.89.29,2.89.29,2.89.31,2.88.31,2.88.32,5.73.66,5.72.68,11.4,1.4,5.67.69,5.66.67,5.65.65,2.82.31,2.8.32,2.81.29,2.81.28,2.8.28,2.81.25,2.79.25,2.79.22,2.8.21,2.78.21,2.78.17,2.78.16,2.78.14,2.79.11,2.77.1,2.77.06,2.77,0,2.76,0H1512l2.76,0,2.76-.06,2.76-.09,2.76-.11,2.77-.16,1.36-.07,1.37-.1,1.38-.1,1.37-.12.55,0,2.56-.2,3.13-.26,3.12-.29,3.16-.3,3.16-.34,3.16-.35,3.18-.38,3.19-.41,3.2-.42,3.21-.45,3.22-.48,3.23-.49,3.22-.51,3.26-.55,3.25-.56,3.25-.59,3.27-.6,3.27-.64,3.28-.65,3.28-.68,3.3-.69,3.29-.73,3.3-.74,3.31-.76,3.3-.79,3.32-.8,3.31-.83,3.32-.86,3.33-.87,3.31-.9,3.33-.91,3.32-.94,3.33-1,3.33-1,3.33-1,3.33-1,3.33-1,3.33-1.06,3.32-1.08,3.33-1.11,3.31-1.11,2.58-.9.75-.24,3.33-1.14,3.32-1.16,3.32-1.18,3.32-1.19,3.31-1.22,3.31-1.24,3.31-1.25,3.31-1.28,3.29-1.29,3.29-1.32,3.28-1.33,3.29-1.36,3.26-1.37,3.27-1.39,3.25-1.41,3.25-1.43,3.24-1.45,3.23-1.47,3.23-1.48,2.93-1.38.29-.12,3.22-1.48,3.21-1.51,3.2-1.52,3.19-1.54,3.19-1.56,3.17-1.57,3.15-1.6,3.15-1.62,3.14-1.62,3.12-1.65,3.1-1.67,3.11-1.69,3.08-1.69,3.06-1.71,3.07-1.75,3-1.74,1.51-.88,1.54-.85,3.07-1.7,3.05-1.71,3-1.73,3-1.75,3-1.77,3-1.79,3-1.79,2.95-1.83,2.94-1.84,2.91-1.85,2.21-1.42.7-.44,2.92-1.84,2.89-1.87,2.87-1.87,2.85-1.9,2.84-1.93,2.81-1.93,2.8-1.95,2.77-2,2.76-2,2.72-2,2.72-2,2.68-2,2.67-2.06,2.63-2.07,1.35-1.07,1.29-1,2.63-2.07,2.59-2.09,2.58-2.11,2.55-2.12,2.53-2.15,2.49-2.16,2.48-2.17,2.45-2.19,2.43-2.22,2.39-2.22,2.36-2.24,2.35-2.26,2.31-2.28,2.29-2.29,2.26-2.31,2.22-2.33,2.2-2.34,2.17-2.36,2.14-2.38,2.11-2.39,2.08-2.41,1-1.21.33-.37Z" transform="translate(-715.86 -461.37)"/><path class="cls-6" d="M2054.8,1179.88l4.71.72h4.29l3.16.66-.67,3.17-1.77,3.94-1.38,4.62-.68,3.3-1.1.77-3.05,2.08-3,2-3.06,2-3.07,2-3.09,2-3.09,2-3.1,1.93-2.14,1.32-1,.58-3.15,1.83-3.16,1.81-3.17,1.79-3.17,1.78-3.2,1.74-3.18,1.72-3.21,1.71-3.2,1.69-3.22,1.66-3.23,1.64-3.23,1.64-3.24,1.6-3.25,1.59-1.42.68-1.84.87-3.28,1.52-3.28,1.51-3.28,1.49-3.3,1.46-3.3,1.45-3.3,1.44-3.31,1.42-3.32,1.41-3.33,1.4-3.33,1.38-3.33,1.37-3.33,1.35-3.35,1.34-3.34,1.33-3.35,1.32-3.35,1.3-3.36,1.29-3.37,1.28-3.36,1.28-3.37,1.26-3.38,1.25-3.38,1.25-3.38,1.23-3.38,1.23-3.4,1.23-1.85.66-4.94,1.67-6.83,2.29-6.83,2.26-6.85,2.25-6.85,2.22-6.85,2.21-6.87,2.2-7,2.24-7.07,2.23-14.16,4.46-7.07,2.23-2.38.75-4.68,1.48-7.06,2.23-3.51,1.13-3.51,1.14-3.5,1.14-3.51,1.16-3.49,1.16-3.48,1.17-3.48,1.19-3.47,1.19-3.46,1.21-3.44,1.23-3.44,1.24-3.42,1.25-3.42,1.28-3.39,1.28-3.39,1.3-3.37,1.33-3.35,1.34-3.34,1.36-3.33,1.38-3.31,1.4-3.29,1.43-3.28,1.45-3.26,1.48-3.24,1.5-3.23,1.53-1.59.76-1.16.55-.43.22-1.6.78-1.6.78-1.58.78-1.58.81-1.58.79-1.57.82-1.57.81-1.56.83-1.55.82-1.54.85-1.56.84-1.53.86-1.53.86-1.53.87-1.52.89-1.52.88-1.51.89-1.49.91-1.5.91-1.49.92-1.48.93-1.49.94-1.46,1-1.46.94-1.47,1-1.45,1-1.44,1-1.44,1-1.43,1-1.43,1-1.42,1-1.42,1-1.4,1-1.4,1.05-1.39,1.06-1.39,1.07-1.38,1.08-1.36,1.09-1.37,1.1-1.36,1.11-1.35,1.12-1.34,1.13-1.33,1.14-1.33,1.16-1.32,1.16-1.32,1.18-1.31,1.18-1.29,1.19-1.87,1.76-1.86,1.78-1.86,1.81-1.83,1.82-1.83,1.85-1.82,1.89-.73.77-.16.16-.89,1-.89,1-.9,1-.87,1-.87,1-.87,1-.86,1-.85,1-.84,1-.84,1-.82,1-.82,1-.8,1-.8,1-.78,1-.78,1-.76,1-.76,1-.74,1-.72,1-.73,1-.7,1-.7,1-.68,1-.66,1-.66,1-.63,1.05-.63,1.07-.6,1.06-.59,1.06-.58,1.06-.57,1.07-.31.59-.25.47-.54,1.07-.54,1.07-.51,1.07-.49,1.06-.49,1.09-.46,1.07-.45,1.07-.43,1.08-.42,1.09-.39,1.07-.38,1.08-.35,1.1-.35,1.08-.33,1.1-.3,1.08-.29,1.1-.27,1.09-.25,1.11-.13.57-.11.59-.11.59-.1.59-.09.62-.08.6-.08.62-.06.62-.06.63,0,.63,0,.64,0,.64,0,.65v.65h0l0,.66,0,.66,0,.67v3.43l0,.7,0,.7,0,.7.06.72.06.71.07.72.08.71.09.73.1.73.1.72.12.74.13.73.13.73.15.74.14.74.17.73.17.74.18.75.19.74.19.74.21.74.21.74.22.75.24.74.23.75.25.73.26.74,0,.07.22.68.25.76.24.75.27.75.27.74.28.74.29.75.29.75.3.74.31.73.33.74.33.73.34.73.34.73.35.72.37.72.37.72.37.71.39.71.39.7.4.7.4.7.42.69.42.68.43.68.43.68.45.66.45.67.45.66.47.65.47.65.48.63.48.64.49.63.51.62.5.62.5.6.52.6.52.58.53.6.54.58.53.57.55.56.54.55.56.55.56.54.56.53.58.52.57.51.58.52.59.49.6.49.59.47.6.47.62.46.6.44.62.45.62.42.62.43.64.4.64.4.64.39.64.38.65.36.65.36.66.35.66.33.67.32.67.32.67.3.68.29.68.28.69.27.7.25.69.25.69.22.71.23.71.21.72.19,1.28.32,1.29.3,1.29.31,1.31.28,1.31.26,1.3.25,1.32.25,1.32.22,1.32.21,1.33.2,1.33.19,1.33.17,1.34.17,1.34.14,1.35.14,1.34.12,1.35.11,1.37.1,1.21.08h.14l1.36,0,1.36,0h2.73l1.37,0,1.38,0,1.37,0,1.38,0,1.37-.07,1.37-.08,1.39-.09,1.37-.09,1.39-.11,1.38-.11,1.39-.13,1.39-.14,1.38-.14,1.4-.16,1.38-.17,1.39-.18,1.39-.17,1.4-.21,1.4-.2,1.38-.21,1.4-.22,1.4-.24,1.39-.23,2.8-.52,2.8-.53,2.79-.57,2.8-.6,2.8-.64,2.79-.67,2.8-.69,2.79-.72,2.79-.75,2.8-.77,2.78-.8,2.78-.83,2.77-.84,2.78-.87,2.76-.89,2.76-.91,1.88-.62.88-.31,2.75-.94,2.74-1,2.73-1,2.73-1,2.71-1,2.71-1,2.69-1,2.69-1,2.68-1.06,2.66-1.06,2.66-1.07,2.65-1.07,2.62-1.09,2.63-1.09,5.19-2.18,5.16-2.19,5.08-2.19,10-4.33,2.34.74-1,2.27-9.84,4.66-5,2.36-5.08,2.38-5.14,2.37-2.59,1.18-2.61,1.18-2.61,1.19-2.63,1.17-2.63,1.17-2.66,1.17-2.66,1.16-2.68,1.15-2.68,1.14-2.71,1.13-2.7,1.11-2.73,1.11-2.72,1.1-2.74,1.07-.87.33-1.88.73-2.75,1-2.76,1-2.77,1-2.78,1-2.78,1-2.81,1-2.79.93-2.81.9-2.82.89-2.81.86-2.83.82-2.84.81-2.84.77-2.83.75-2.85.71-2.85.68-1.44.33-1.43.32-1.43.32-1.43.3-1.43.29-1.44.28-1.43.28-1.43.26-1.45.26-1.44.25-1.44.23-1.43.24-1.44.21-1.44.21-1.44.2-1.44.18-1.46.18-1.44.17-1.44.15-1.44.15-1.45.13-1.44.13-1.46.1-1.44.1-1.45.09-1.44.07-1.45.07h-.15l-1.3.09-1.45.09-1.45.08-1.45,0-1.45.06-1.46,0-1.46,0h-4.37l-1.45,0-1.46,0-1.47,0-1.46-.07-1.46-.08-1.47-.09-1.46-.11-1.46-.12-1.49-.14-1-.11-1-.12-1-.15-1-.15-1-.18-1-.19-1-.2-1-.23-1-.23-1-.26-.95-.26-1-.29-.94-.29-.94-.31-.94-.32-.93-.34-.92-.36-.93-.37-.92-.38-.91-.39-.91-.4-.9-.42-.91-.44-.89-.43-.89-.46-.89-.47-.88-.48-.87-.5-.87-.51-.87-.51-.86-.53-.85-.54-.85-.55-.85-.57-.84-.57-.83-.58-.82-.59-.82-.61h0l-.81-.61-.81-.63-.79-.64-.8-.64-.79-.66-.78-.67-.77-.68-.77-.69-.76-.7-.76-.7-.75-.72-.74-.71-.74-.74-.72-.74-.73-.75-.71-.76-.71-.76-.7-.77-.69-.78-.68-.79-.69-.8-.67-.8-.66-.82-.66-.81-.64-.83-.64-.84-.64-.83-.62-.85-.62-.85-.6-.86-.6-.87-.6-.88-.58-.88-.58-.89-.56-.9-.55-.89-.55-.9-.55-.92-.52-.92-.53-.92-.47-.85,0-.08-.47-1-.47-.95-.46-1-.44-1-.43-1-.43-1-.41-1-.4-1-.4-1-.38-1-.37-1-.37-1-.35-1-.33-1-.34-1-.31-1-.31-1-.29-1-.28-1-.27-1-.27-1-.25-1-.23-1-.22-1.06-.22-1-.19-1-.19-1-.16-1-.16-1.07-.14-1-.14-1.06-.12-1.06-.1-1.07-.09-1.06-.08-1.06v-2.16l0-1.07,0-1.08,0-1.07.05-1.07.07-1.07.09-1.08.11-1.07.12-1.07.14-1.07.15-1.06.17-1.08.19-1.07.32-1.62.33-1.61.36-1.6.39-1.59.41-1.59.44-1.56.46-1.57.48-1.55.5-1.54.52-1.53.55-1.52.56-1.52.59-1.5.61-1.49.62-1.48.65-1.46.66-1.47.68-1.45.31-.64.39-.79.73-1.42.74-1.42.76-1.39.77-1.39.78-1.39.79-1.36.82-1.36.83-1.34.83-1.34.85-1.32.86-1.32.89-1.31.88-1.29.89-1.29.91-1.27.91-1.26.93-1.25.93-1.26,1-1.23,1-1.22,1-1.22,1-1.2,1-1.19,1-1.19,1-1.17,1-1.16,1-1.16,1-1.14,1-1.14,1-1.13,1-1.11,1-1.1.19-.2.86-.91,2-2.13,2.08-2.11,2.08-2.07,2.07-2,2.08-2,2.08-2,1.49-1.36,1.48-1.36,1.5-1.35,1.51-1.32,1.51-1.31,1.51-1.31,1.52-1.28,1.53-1.28,1.55-1.26,1.55-1.25,1.55-1.24,1.56-1.22,1.56-1.22,1.57-1.19,1.58-1.19,1.59-1.17,1.59-1.16,1.6-1.15,1.6-1.14,1.61-1.13,1.62-1.11,1.62-1.1,1.62-1.1,1.63-1.08,1.64-1.06,1.64-1.06,1.65-1,1.65-1,1.65-1,1.67-1,1.66-1,1.68-1,1.67-1,1.68-1,1.69-1,1.68-1,1.7-1,1.7-.94,1.7-.92,1.7-.91,1.71-.91,1.72-.89,1.71-.89,1.72-.89,1.73-.86,1.72-.86,1.73-.86,1.73-.84.48-.23,1.26-.59,1.77-.83,3.47-1.61,3.51-1.57,3.52-1.56,3.53-1.52,3.54-1.49,3.55-1.47,3.55-1.43,3.56-1.42,3.58-1.38,3.57-1.36,3.58-1.34,3.58-1.32,3.59-1.3,3.6-1.27,3.59-1.25,3.6-1.24,3.61-1.23,3.6-1.21,3.61-1.18,3.59-1.18,3.61-1.16,3.6-1.15,3.61-1.14,3.6-1.12,3.6-1.11,7.18-2.2,4.75-1.45,2.42-.72,7.15-2.12,14.21-4.22,7.06-2.1,7-2.11,6.85-2.06,6.83-2.08,6.82-2.09,6.79-2.1,6.77-2.11,6.76-2.14,4.9-1.57,1.85-.57,3.36-1,3.37-1,3.36-1.05,3.36-1.06,3.35-1.06,3.34-1.09,3.34-1.08,3.33-1.1,3.33-1.1,3.32-1.12,3.31-1.13,3.3-1.14,3.3-1.15,3.3-1.16,3.28-1.18,3.27-1.19,3.28-1.19,3.26-1.22,3.26-1.23,3.25-1.25,3.24-1.25,3.24-1.28,3.22-1.29,3.23-1.3,3.21-1.33,1.81-.75,1.4-.57,3.21-1.33,3.21-1.34,3.19-1.35,3.2-1.37,3.17-1.41,3.17-1.41,3.18-1.44,3.15-1.45,3.15-1.49,3.15-1.49,3.13-1.52,3.12-1.55,3.12-1.57,1-.49,2.17-1.05,3.13-1.57L2035,1188l3.1-1.61,3.11-1.63,3.1-1.67,3.09-1.68,3.08-1.73,1.12-.63Z" transform="translate(-715.86 -461.37)"/><path class="cls-6" d="M1201.15,1437.09l1.46.11,1.44.12,1.43.17,1.41.19,1.41.23.86.16.51.1,1.38.3,1.34.33,1.3.36.69.2.64.2.65.22.65.22.64.22.63.25.63.24.63.25.61.27.61.27.61.28.6.29.59.3.59.3.59.32.57.33.57.32.57.35.55.34.55.36.55.37.54.38.53.39.53.39.51.4.5.42.51.42.5.43.48.43.48.45.47.46.46.47.45.47.45.48.44.49.42.5.43.5.4.52.4.52.39.54.38.55.38.54.36.56.35.56.34.58.33.58.32.58.31.61.29.6.29.62.28.61.26.63.26.63.24.64.23.65.22.64.2.66.15.51,0,.16.13.7.11.68.11.69.08.69.07.71.07.7,0,.71,0,.71,0,.7v2.16l0,.73,0,.72,0,.73-.07.73-.08.73-.09.74-.11.74-.11.73-.14.74-.14.75-.16.75-.16.75-.18.75-.2.74-.21.75-.22.76-.23.76-.25.75-.26.76-.26.77-.28.76-.29.76-.32.77-.32.77-.34.77-.34.77-.36.78-.37.78-.6,1.19-.63,1.21-.65,1.18-.66,1.17-.68,1.16-.7,1.14-.72,1.13-.73,1.11-.75,1.11-.77,1.09-.78,1.08-.23.3-.58.76-.81,1-.83,1-.85,1-.85,1-.87,1-.88,1-.91,1-.9,1-.92,1-.94,1-.94.92-1,.93-1,.92-1,.9-1,.9-1,.88-1,.87-1,.86-1,.85-1,.84-1,.83-1,.83-1,.81-1.05.8-1,.79-1.06.8-1.06.77-1.07.77-1.07.76-1.08.75-1.08.73-1.08.74-.09.07-1,.69-1.06.76-2.13,1.48-2.13,1.45-2.15,1.41-2.14,1.38-2.15,1.36-2.14,1.32-2.14,1.3-2.12,1.26-2.11,1.24-6.72,3.89-6.69,3.86-3.31,1.94-3.3,1.93-3.29,1.94-3.25,2-.08,0-3.16,1.94-1.6,1-1.59,1-1.6,1-1.59,1-1.57,1-1.57,1-1.55,1-1.55,1-1.55,1-1.53,1.05-1.52,1.07-1.51,1.07-1.5,1.08-1.49,1.1-1.48,1.11L1120,1584l-1.46,1.13-1.44,1.14-1.43,1.15-1.43,1.16-1.41,1.19-1.4,1.19-1.37,1.21-1.37,1.22-1.36,1.24-1.34,1.25-.42.4-1,.82-1.4,1.19-1.4,1.22-1.37,1.24-1.35,1.26-1.35,1.29-1.33,1.3-1.32,1.33-1.3,1.37-1.28,1.37-1.27,1.41-1.25,1.43-1.23,1.45-1.21,1.49-1.2,1.51-1.18,1.53L1084,1619l-1.15,1.6-1.11,1.62-1.12,1.65-2.13.59-.47-2.16,1-1.78,1-1.75,1-1.75,1-1.72,1-1.7,1.07-1.67,1.08-1.66,1.11-1.63,1.13-1.61,1.14-1.59,1.16-1.58,1.17-1.56,1.19-1.53,1.21-1.53,1.22-1.5,1.24-1.49,1.26-1.47,1.27-1.45,1.28-1.44.89-1,.44-.41,1.41-1.32,1.42-1.3,1.42-1.27,1.44-1.26,1.45-1.25,1.46-1.23,1.49-1.22,1.49-1.2,1.49-1.18,1.51-1.17,1.52-1.15,1.52-1.15,1.54-1.13,1.54-1.12,1.57-1.12,1.56-1.09,1.56-1.09,1.59-1.07,1.59-1.07,1.58-1,1.61-1,1.61-1,1.61-1,1.62-1,1.63-1,1.63-1,3.2-1.95.08-.05,3.29-2,3.31-2,3.32-2,3.34-2,6.68-3.88,6.69-3.9,2.07-1.21,2.06-1.24,2.08-1.27,2.09-1.28,2.08-1.32,2.08-1.35,2.08-1.38,2-1.41,2.07-1.43,1-.72.93-.67.09-.07,1-.78,1-.78,1-.8,1-.79,1-.82,1-.8,1-.83.94-.82.93-.84.92-.84.92-.85.91-.86.89-.86.88-.87.87-.87.86-.89.85-.89.84-.89.84-.91.8-.91.81-.92.79-.93.77-.92.76-.94.75-.94.74-.95.71-1,.71-1,.68-1,.67-1,.66-1,.62-1,.45-.72.18-.28.6-1,.59-1,.56-1,.56-1,.53-1,.51-1,.5-1,.47-1,.46-1,.44-1,.41-1.06.25-.66.23-.66.22-.65.22-.64.2-.63.19-.64.18-.63.16-.61.16-.61.14-.61.14-.59.12-.59.12-.63,0,.09.11-.62.1-.62,0,.09.1-.6.08-.62,0,.1.08-.6,0-.59v.11l0-.59,0-.58v.1l0-.57,0-.57v-1.45l0-.55v.12l0-.55,0-.53v.12l0-.53-.06-.52v.12l-.06-.51-.08-.52,0,.14-.09-.51-.09-.5,0,.13-.11-.5-.11-.48,0,.13-.12-.48-.13-.47,0,.13-.13-.47,0-.12-.07-.36,0,.14-.09-.47-.1-.47,0,.13-.12-.47-.11-.46,0,.13-.14-.46-.13-.45,0,.13-.14-.45-.16-.45.06.12-.16-.43-.18-.44.07.13-.18-.44-.19-.42.07.11-.2-.43-.2-.41.06.11-.21-.41-.22-.42.06.12-.22-.42-.23-.4.06.11-.23-.4-.26-.4.08.1-.27-.39-.27-.38.08.09-.27-.38-.29-.38.08.09-.29-.37-.3-.37.09.08-.32-.36-.31-.37.08.09-.32-.36-.34-.35.09.07-.35-.34-.34-.35.09.07-.36-.34-.36-.33.08.06-.37-.33-.38-.32.09.06-.39-.32-.39-.31.08.05-.4-.31-.41-.3.08,0-.41-.3-.43-.3.08.06-.42-.29-.44-.3.08,0-.45-.28-.44-.27.07,0-.45-.27-.47-.27.08,0-.49-.25-.48-.26.08,0-.48-.24-.5-.25.08,0-.51-.24-.5-.23.07,0-.51-.23-.52-.22.07,0-.52-.21-1-.4-1-.36-1.06-.34-.4-.12-.69-.21-1.1-.29-1.14-.28-1.16-.24-1.19-.22-1.2-.21-1.24-.17-1.26-.15-1.28-.11-1.3-.1-1.32-.06-1.34,0h-2.67l-1.34,0-1.33,0-1.31.06h-.13l-1.2.1-1.31.14-1.32.14-1.31.16-1.3.18-1.3.2-1.3.21-1.29.23-1.3.24-1.28.26-.42.09-.86.24-1.25.39-1.25.4-1.25.41-1.24.42-1.24.44-1.23.45-1.24.45-1.22.48-1.23.48-1.21.5-1.21.51-1.22.53-1.2.52-1.2.54-1.21.56-1.19.55-1.2.57-1.19.58-1.19.59-1.18.6-2.37,1.22-2.36,1.25-2.35,1.27-2.35,1.31-.5.29-1.82,1.06-2.33,1.39-2.31,1.4-2.31,1.42-2.32,1.44-2.31,1.44-4.64,2.93-4.64,3-2.34,1.48-2.34,1.46-2.36,1.46-2.37,1.47-2.38,1.45-2.4,1.43-2.41,1.43-2.44,1.4-2.45,1.38-1.25.68-1.24.68-.19.1-1.07.56-1.25.66-1.28.65-1.27.64-1.27.63-1.29.63-1.29.61-1.31.61-1.31.59-1.33.59-1.33.57-1.33.57-1.35.56-1.35.54-1.36.52-1.38.53-1.38.5-1.4.49-1.41.47-1.42.47-1.41.45-1.45.43-1.44.42-1.46.4-1.48.38-1.47.37-1.5.34-1.51.33-1.51.31-1.52.29-1.55.28-1.55.24-1.56.24-1.59.21-1.59.18-1.59.17-1.62.14-1.62.13-1.65.09-1.64.07-1.66,0-1.68,0h-.85l-.84,0-1.68-.06-1.18-.06-1.16-.09-1.16-.1-1.16-.13-1.15-.13-1.15-.16-1.14-.17-1.14-.19-1.13-.2L1015,1508l-1.12-.23-1.1-.26-1.11-.27-1.1-.28-1.09-.3-1.09-.31-1.08-.33-1.07-.34-1.06-.36-1.06-.37-1-.39-1-.4-1-.42-1-.42-1-.44-1-.44-1-.47-.32-.16-.66-.33-1-.52-1-.52-.95-.54-1-.55-.94-.55-.94-.57-.91-.57-.92-.6-.91-.59-.9-.61-.88-.62-.89-.61L984,1494l-.87-.64-.86-.64-.85-.66-.84-.66-.83-.67-.83-.68-.86-.71-1.59-1.36-1.58-1.41-1.08-1-.47-.47-1.46-1.53-1.44-1.54-1.41-1.56-1.38-1.57-1.37-1.6-1.34-1.6-1.32-1.62-1.28-1.63-1.27-1.64-1.26-1.64-1.22-1.66-1.09-1.48-.13-.19-1.14-1.71-1.13-1.71-1.12-1.71-1.09-1.72-1.09-1.72-1.06-1.72-1.06-1.73-1-1.72-1-1.73-2-3.41-2-3.42-.61-1.07-1.29-2.36-1.85-3.41-1.82-3.37-1.81-3.33-1.79-3.28-1.8-3.22-.88-1.57-.88-1.56-.9-1.54-.88-1.53-.88-1.5-.9-1.49-.88-1.46-.89-1.43-.89-1.41-.89-1.38-.88-1.37-.9-1.33-.89-1.29-.89-1.28-.91-1.25-.89-1.2-.91-1.19-.89-1.15-.91-1.11-.88-1,0,0-.89-1.07-.89-1-.93-1-.41-.46-.45-.47-.45-.47-.45-.46-.46-.45-.45-.45-.45-.42-.45-.42-.46-.42-.46-.4-.44-.4-.46-.38-.46-.38-.47-.37-.46-.37-.46-.35-.46-.34-.46-.33-.47-.33-.47-.31-.47-.31-.47-.3-.47-.29-.48-.28-.48-.28-.48-.26-.48-.26-.49-.25-.49-.23-.5-.24-.49-.22-.5-.22-.5-.2-.52-.21-.51-.19-.53-.19-.52-.16L894,1381l-.53-.16-.55-.15-.55-.14-.56-.13-.56-.12-.58-.12-.58-.11-.58-.09-.6-.09-.6-.07-.62-.07-.62-.06-.64,0-.64,0-.66,0h-2l-.69,0-.71,0-.71,0-.74.06-.73.06-.75.08-.77.1-.77.1-.8.13-.79.14-.82.15-.82.16-.84.18-.85.2-.86.2-.87.24-.9.23-.89.26-.92.28-.91.29-.94.31-.95.33-1,.33-1,.36-1,.38-1,.39-.86.36-.86.36-.87.36-.86.38-.85.4-.86.4-.86.4-.85.41-.86.43-.85.43-.84.44h0l-.88.39-.9.39-.86.39-1.79.85-1.75.87-1.75.91-1.73.92-1.74,1-1.72,1-1.71,1-.92.57-2.09-1.16-3.88-1.54-2.89-3.53-.67-4.15-.63-2.34.86-.85,1.58-1.53,1.6-1.52,1.64-1.5,1.65-1.5,1.69-1.48,1.71-1.46,1.72-1.43.89-.71.88-.72.9-.7h0l.93-.63.94-.62,1-.62,1-.6,1-.61,1-.59,1-.59,1-.57,1-.57,1-.56,1-.56,1.15-.61,1.15-.59,1.15-.6,1.15-.55,1.14-.55,1.14-.53,1.13-.51,1.13-.49,1.13-.47,1.13-.46,1.11-.43,1.12-.42,1.12-.4,1.1-.39,1.12-.37,1.11-.35,1.1-.33,1.1-.31L873,1356l1.11-.28,1.08-.26,1.1-.24,1.09-.22,1.09-.21,1.08-.19,1.08-.17,1.08-.14,1.07-.14,1.07-.11,1.07-.1,1.08-.08,1.06-.07,1.06,0,1.05,0h2.11l1,0,1,0,1,.06,1,.08,1,.1,1,.11,1,.14,1,.15,1,.17,1,.19,1,.2,1,.22,1,.23,1,.26,1,.27,1,.27,1,.31,1,.3.93.33.94.34.94.36.93.36.91.38.91.41.9.4.9.42.88.44.88.45.87.45.88.47.84.48.85.48.85.51.84.51.83.53.81.53.82.54.8.55.81.57.79.55.78.58.78.6.78.59.77.6.76.61.78.64,1.46,1.23,1.47,1.28,1.45,1.31,0,0,1.36,1.32,1.39,1.37,1.36,1.4,1.34,1.4,1.32,1.45,1.31,1.45,1.28,1.47,1.28,1.49,1.26,1.5,1.24,1.52,1.23,1.51,1.22,1.55,1.2,1.55,1.2,1.55,1.18,1.57,1.18,1.57,1.17,1.59,1.15,1.57,1.15,1.6,1.15,1.61,2.26,3.17,2.23,3.2,2.23,3.18,2.21,3.17,2.19,3.16,1.51,2.13.65,1,2.09,3.13,2.12,3.1,1,1.51,1,1.5,1,1.49,1,1.47,1.05,1.46,1,1.43,1,1.4,1.05,1.4,1,1.36.12.16.89,1.23,1,1.35,1,1.34,1,1.31,1,1.28,1,1.26,1,1.22,1,1.2,1,1.16,1,1.14,1,1.11,1,1.07.32.32.66.76,1,1.08,1,1.08.44.48.49.5.48.49.5.49.49.48.49.46.49.46.49.46.49.45.51.43.49.43.5.42.5.42.51.4.5.39.5.39.52.38.5.37.51.37.52.35.34.24.17.11.5.37.52.36.5.35.51.35.53.34.52.32.53.32.54.32.53.3.54.3.55.29.54.28.56.28.57.27.57.25.57.26.59.25.58.23.61.23.6.22.62.21.61.21.63.19.63.19.65.18.66.18.66.16,1.17.25.57.12.58.13,1.16.25,1.15.22,1.17.21,1.15.19,1.16.17,1.15.14,1.16.14,1.15.11,1.15.09,1.17.08,1.16.06,1.16,0,1.16,0H1050l1.17,0,1.17-.05,1.16-.06,1.17-.08,1.18-.09,1.17-.11,1.19-.13,1.17-.13,1.18-.16,1.19-.17,1.18-.18,1.2-.2,1.18-.22,1.2-.23,1.19-.25,1.2-.25,1.2-.27,1.2-.28,1.21-.3,1.2-.31,1.21-.32,1.21-.33,1.21-.35,1.21-.36,1.22-.37,1.22-.38,1-.33.18-.06,1.22-.39,1.22-.39,2.47-.84,2.47-.87,2.47-.9,2.46-.94,2.48-1,2.5-1,2.49-1,2.5-1,2.5-1,5-2.13,5-2.16,2.55-1.1,2.53-1.08,2.56-1.07,2.56-1.07,2.57-1.07,2-.82.55-.24L1135,1452l2.58-1,2.59-1,2.59-1,1.32-.49,1.31-.48,1.31-.48,1.32-.46,1.31-.46,1.32-.45,1.33-.43,1.33-.43,1.33-.42,1.33-.4,1.34-.4,1.35-.38,1.34-.37,1.36-.37,1.35-.35,1.36-.33,1.36-.33,1.37-.3,1.37-.3,1.37-.28.94-.18.44-.11,1.36-.35,1.36-.33,1.38-.31,1.38-.3,1.4-.29,1.4-.25,1.39-.25,1.42-.23,1.42-.22,1.31-.17.12,0,1.43-.2,1.44-.18,1.44-.16,1.47-.15,1.47-.12,1.52-.1,1.53-.08,1.51,0h1.5l1.48,0Z" transform="translate(-715.86 -461.37)"/><path class="cls-6" d="M1829.74,587.79l2.75,3.63,2.76,4.23-1.14.93-1.44,1.16-1.46,1.15-1.45,1.14-1.46,1.12-1.48,1.11-1.46,1.1-1.49,1.07-1.48,1.08-1.49,1.06-1.5,1-1.49,1-1.51,1-1.52,1-1.52,1-1.52,1-1.53,1-1.53,1-1.54.94-1.54.93-1.56.92-1.55.92-1.55.89-1.58.88-1.51.84,0,0-1.59.85-1.58.83-1.59.82-1.6.81-1.6.79-1.61.8-1.6.77-1.62.76-1.62.76-1.62.73-1.62.73-1.63.73-1.65.7-1.64.7-1.64.69-1.64.68-1.66.66-1.65.66-1.65.64-1.67.64-1.66.63-1.68.61-1.68.6-1.67.61-1.68.58-1.68.58-1.69.57-1.69.55-1.7.56-1.69.53-1.7.53-1.71.52-1.71.52-1.71.5-1.71.49-1.72.49-1.72.47-1.2.34-.52.13-1.73.45-1.72.44-1.76.43-3.46.84-3.49.81-3.48.77-3.51.75-3.52.72-3.52.68-3.53.66-3.54.63-3.54.61-3.56.58-3.56.56-3.57.52-3.58.52-3.57.48-3.6.47-3.59.43-3.6.43-3.6.4-2.93.31-.68.07-3.62.33-3.62.32-3.62.29-3.63.28-3.62.26-3.65.25-3.63.23-3.63.23-3.64.21-3.64.2-3.64.19-3.65.18-3.64.17-3.64.16-7.27.31-5.88.22-1.41,0-7.28.15-7.27.12-7.26.11-14.49.24-7.21.12-7.21.13-5.93.15h-1.24l-7.17.1-3.56.07-3.56.08-3.56.07-3.56.1-3.54.1-3.53.12-3.53.13-3.52.13-3.51.16-3.49.18-3.5.18-3.49.2-3.47.22-3.46.24-3.47.24-1.37.12-2.07.14-3.44.26-3.43.28-3.42.3-3.39.32-3.4.34-3.39.37-3.37.39-3.36.41-3.35.44-3.33.47-3.33.49-3.31.51-3.31.55-3.28.57-3.28.6-3.27.64-1.61.31-1.62.34-.84.18-.78.15-1.61.34-1.62.34-1.6.35-1.61.36-1.6.37-1.61.36-1.6.4-1.58.39-1.6.39-1.59.41-1.57.41-1.59.43-1.56.43-1.29.36-1.27.37-1.26.38-1.27.38-1.25.39-1.26.39-1.24.4-1.25.42-1.24.41-1.23.44-1.24.42-1.22.45-1.23.45-1.19.43-2.45.94-2.41,1-2.39,1-2.38,1-.73.31-1.65.71-2.36,1-2.36,1.05-2.33,1.09-2.33,1.1-2.3,1.13-2.3,1.16-2.28,1.19-2.27,1.22-2.25,1.22-2.25,1.27-2.22,1.28L1339.4,703l-2.2,1.33-2.2,1.36-2.18,1.38-2.16,1.39-2.16,1.43-2.15,1.44-2.13,1.48-2.12,1.48-2.11,1.51-2.1,1.53-2.09,1.56-2.08,1.57-2.08,1.59-2.05,1.61-2,1.63-2,1.65-2,1.67-2,1.68-2,1.7-2,1.72-.31.28-1.69,1.45-2,1.75-2,1.75-2,1.78-2,1.78-2,1.81-2,1.82-1.94,1.85-1.94,1.84-1.92,1.87-1.92,1.87-1.91,1.9-1.9,1.9-1.9,1.92-1.89,1.93-1.87,1.94-1.88,2-1.87,2-1.86,2-1.86,2-1.85,2-1.83,2-1.85,2-1.83,2-1.82,2-1.82,2-3.63,4.1-3.61,4.12-3.59,4.15-3.57,4.17L1230,803.9l-3.54,4.21-.52.62-3,3.6-3.54,4.21-3.52,4.22-7,8.47-7,8.44-3.51,4.22-3.51,4.2-3.51,4.19-3.5,4.16-3.52,4.16-3.53,4.12-3.53,4.1-3.55,4.07-1.77,2-1.78,2-1.79,2-1.78,2-1.79,2-1.8,2-1.8,2-1.8,2-1.81,2-1.82,1.93-1.81,1.92-1.83,1.91-1.82,1.9-1.85,1.88-1.84,1.87-1.84,1.86-2.84.1,0-2.85,1.76-1.91,1.74-1.93,1.75-2,1.73-2,1.73-2,1.72-2,1.71-2,1.71-2,1.7-2,1.7-2,1.68-2,1.69-2,1.68-2.07,1.67-2.06,1.67-2.09,1.66-2.09,3.33-4.21,3.3-4.25,3.29-4.28,3.28-4.3,3.27-4.34,3.26-4.35,3.25-4.38,3.25-4.39,6.51-8.84,6.51-8.87,3.25-4.45,3.27-4.44,2.81-3.8.48-.66,3.29-4.44,3.32-4.43,3.33-4.43,3.35-4.41,3.38-4.39,3.38-4.39,1.71-2.18,1.71-2.19,1.72-2.17,1.72-2.16,1.73-2.17,1.75-2.16,1.75-2.15,1.75-2.15,1.76-2.13,1.78-2.13,1.77-2.12,1.8-2.11,1.8-2.11,1.81-2.09,1.81-2.09,1.83-2.08,1.84-2.06,1.85-2.06,1.86-2,1.87-2,1.89-2,1.9-2,1.91-2,1.91-2,1.93-2,1.64-1.64.32-.31,2-2,2-1.92,2-1.91,2-1.89,2-1.89,2.05-1.86,2-1.84,2.08-1.84,2.09-1.82,2.1-1.8,2.12-1.78,2.14-1.77,2.15-1.74,2.17-1.73,2.19-1.71,2.2-1.7,2.23-1.68,2.23-1.65,2.27-1.63,2.28-1.61,2.29-1.6,2.32-1.56,2.34-1.56,2.35-1.53,2.37-1.49,2.4-1.49,2.42-1.46,2.43-1.43,2.46-1.41,2.48-1.4,2.5-1.35,2.53-1.34,1.77-.9.79-.39,2.58-1.26,2.6-1.21,2.63-1.2,2.63-1.16,1.35-.57,1.34-.57,1.35-.56L1375,659l1.36-.53,1.36-.54,1.37-.54,1.37-.51,1.37-.51,1.39-.51,1.4-.5,1.39-.49,1.4-.48,1.41-.47,1.7-.56,1.69-.55,1.7-.53,1.7-.54,1.71-.52,1.71-.51,1.71-.5,1.72-.49,1.72-.49,1.72-.47,1.72-.47,1.72-.46,1.73-.45.83-.21.9-.22,1.75-.41,1.75-.42,3.48-.78,3.49-.76,3.51-.73,3.52-.69,3.52-.67,3.53-.64,3.54-.6,3.54-.58,3.56-.56,3.56-.52,3.57-.51,3.57-.48,3.58-.46,3.59-.42,3.59-.41L1473,637l2.16-.23,1.45-.13,3.61-.31,3.61-.31,3.61-.28,3.62-.25,3.63-.25,3.62-.23,3.63-.22,3.63-.2,3.63-.17,3.63-.18,3.65-.16,3.63-.15,3.64-.14,3.64-.12,3.64-.13,7.28-.21,1.26,0,6-.09,7.27-.08,7.28-.07,14.51-.11,7.24,0,7.23-.06,7.21-.08,1.4,0,5.8,0h10.76l3.57,0,3.58,0,3.56,0,3.55,0,3.56-.06,3.54-.08,3.54-.09,3.53-.1,3.52-.11,3.52-.13,3.51-.15,3.49-.16,3.5-.19.65,0,2.84-.13,3.47-.18,3.46-.19,3.47-.23,3.45-.24,3.44-.26,3.43-.29,3.42-.3,3.41-.34,3.4-.34,3.39-.38,3.38-.42,3.38-.43,3.35-.46,3.35-.48,3.34-.51,3.32-.55,3.32-.57,3.31-.62,1.64-.31,1.64-.32,1.63-.33.5-.1,1.14-.23,1.64-.33,1.64-.34,1.63-.35,1.62-.36,1.63-.36,1.62-.38,1.62-.38,1.61-.41,1.61-.4,1.61-.41,1.6-.41,1.6-.44,1.6-.44,1.6-.44,1.6-.46,1.58-.47,1.59-.48,1.58-.48,1.58-.5,1.57-.51,1.57-.51,1.57-.53,1.57-.54,1.56-.54,1.56-.56,1.55-.57,1.55-.58,1.55-.59,1.55-.59,1.54-.62,1.53-.62,1.53-.63,1.53-.65,1.53-.66,1.52-.66,1.52-.68,1.52-.68,0,0,1.48-.66,1.51-.69,1.52-.71,1.5-.72,1.51-.73,1.5-.75,1.5-.76,1.49-.76,1.49-.78,1.48-.79,1.49-.82,1.49-.81,1.47-.84,1.48-.84,1.46-.86,1.46-.87,1.47-.9,1.45-.89,1.45-.92,1.45-.92,1.45-.94,1.44-1,1.44-1,1.43-1,1.17-.81Z" transform="translate(-715.86 -461.37)"/></g></svg>