<svg xmlns="http://www.w3.org/2000/svg" xmlns:xlink="http://www.w3.org/1999/xlink" width="100.939" height="100.939" viewBox="0 0 100.939 100.939">
  <defs>
    <linearGradient id="linear-gradient" x1="0.5" x2="0.5" y2="1" gradientUnits="objectBoundingBox">
      <stop offset="0" stop-color="#7b1562"/>
      <stop offset="1" stop-color="#c70039"/>
    </linearGradient>
  </defs>
  <path id="youtube" d="M50.464,101.439h-.027c-3.046-.029-29.972-.369-37.6-3.224-5.331-1.983-9.54-7.8-10.977-15.18C-.136,72.665-.009,52.7,0,51.106c-.013-1.587-.142-21.717,1.849-32.173,0-.01,0-.02.006-.03C3.281,11.608,7.584,5.611,12.824,3.622l.04-.015C20.406.864,47.385.528,50.437.5h.055C53.545.528,80.543.868,88.1,3.728c5.321,1.98,9.53,7.8,10.967,15.175,2.069,10.443,1.875,30.629,1.855,32.323,0,.375.013,1.907,0,4.167-.024,2.994-1.784,5.4-3.942,5.4h-.043c-2.178-.032-3.924-2.5-3.9-5.514.019-2.417,0-3.976,0-3.992,0-.056,0-.114,0-.172.072-5.578-.069-21.726-1.579-29.347-.713-3.658-2.789-6.526-5.422-7.506-5.573-2.109-27.54-2.77-35.573-2.847-8.031.078-29.972.721-35.576,2.742-2.582.991-4.7,3.961-5.412,7.577-1.753,9.229-1.587,29.1-1.586,29.3v.144c-.052,5.512.132,21.473,1.586,29.033.705,3.62,2.781,6.488,5.413,7.468,5.629,2.107,27.559,2.769,35.574,2.846,8.036-.078,30-.721,35.586-2.745,2.627-.984,4.7-3.848,5.405-7.48.567-2.909,2.731-4.633,4.833-3.847s3.348,3.778,2.781,6.688c-1.438,7.378-5.646,13.2-10.983,15.182l-.022.007c-7.542,2.743-34.521,3.079-37.573,3.108h-.027ZM46,71.286,66.141,55.2a6.346,6.346,0,0,0,0-9L46,30.106a2.848,2.848,0,0,0-3.726.01,5.8,5.8,0,0,0-1.861,4.491V66.785a5.8,5.8,0,0,0,1.861,4.492,2.846,2.846,0,0,0,3.726.01Zm0,0" transform="translate(0.002 -0.5)" fill="url(#linear-gradient)"/>
</svg>
